<?xml version="1.0" encoding="utf-8"?>
<!-- Generator: Adobe Illustrator 25.4.1, SVG Export Plug-In . SVG Version: 6.00 Build 0)  -->
<svg version="1.1" id="Layer_1" xmlns="http://www.w3.org/2000/svg" xmlns:xlink="http://www.w3.org/1999/xlink" x="0px" y="0px"
	 viewBox="0 0 32 32" style="enable-background:new 0 0 32 32;" xml:space="preserve">
<style type="text/css">
	.st0{fill:#4C4D4D;}
	.st1{fill:#1FA0DB;}
</style>
<path id="XMLID_15_" class="st0" d="M12.1,7.5h2.3v10.2c0,1.8-0.2,3.2-0.6,4.2c-0.4,1.1-1.2,1.9-2.2,2.6c-1.1,0.7-2.4,1-4.2,1
	c-1.7,0-3-0.3-4.1-0.8c-1.1-0.6-1.8-1.4-2.2-2.5s-0.7-2.6-0.7-4.4V7.5h2.2v10.2c0,1.5,0.2,2.7,0.4,3.4c0.3,0.7,0.7,1.2,1.5,1.7
	c0.7,0.4,1.5,0.6,2.6,0.6c1.7,0,2.9-0.4,3.7-1.2c0.7-0.7,1.1-2.3,1.1-4.5L12.1,7.5L12.1,7.5z"/>
<path id="XMLID_9_" class="st1" d="M29.3,19.1l2.3,0.6c-0.5,1.9-1.3,3.4-2.7,4.4c-1.2,1-2.8,1.5-4.7,1.5c-1.9,0-3.5-0.4-4.7-1.2
	c-1.2-0.7-2.1-1.9-2.7-3.4C16.2,19.6,16,18,16,16.3c0-1.8,0.3-3.5,1.1-4.8c0.7-1.3,1.7-2.4,3-3.1c1.3-0.7,2.7-1.1,4.3-1.1
	c1.8,0,3.2,0.5,4.5,1.3c1.2,0.9,2.1,2.2,2.5,3.8l-2.2,0.7c-0.4-1.2-1-2.2-1.8-2.8c-0.7-0.6-1.7-0.9-2.9-0.9c-1.3,0-2.5,0.3-3.4,1
	c-0.9,0.7-1.6,1.5-1.9,2.7c-0.4,1.1-0.6,2.2-0.6,3.4c0,1.5,0.2,2.8,0.7,4c0.4,1.1,1.1,2,2.1,2.5c0.9,0.6,1.9,0.8,3,0.8
	c1.3,0,2.4-0.4,3.3-1.2C28.4,21.8,29,20.6,29.3,19.1z"/>
</svg>
