<?xml version="1.0" encoding="UTF-8"?>
<svg id="Layer_1" data-name="Layer 1" xmlns="http://www.w3.org/2000/svg" version="1.1" viewBox="0 0 32 32">
  <defs>
    <style>
      .cls-1 {
        fill: #1fa0db;
      }

      .cls-1, .cls-2 {
        stroke-width: 0px;
      }

      .cls-2 {
        fill: #fff;
      }
    </style>
  </defs>
  <path class="cls-2" d="M12.1,7.5h2.3v10.2c0,1.8-.2,3.2-.6,4.2-.4,1.1-1.2,1.9-2.2,2.6-1.1.7-2.4,1-4.2,1s-3-.3-4.1-.8c-1.1-.6-1.8-1.4-2.2-2.5s-.7-2.6-.7-4.4V7.5h2.2v10.2c0,1.5.2,2.7.4,3.4.3.7.7,1.2,1.5,1.7.7.4,1.5.6,2.6.6,1.7,0,2.9-.4,3.7-1.2.7-.7,1.1-2.3,1.1-4.5l.2-10.2h0Z"/>
  <path class="cls-1" d="M29.3,19.1l2.3.6c-.5,1.9-1.3,3.4-2.7,4.4-1.2,1-2.8,1.5-4.7,1.5s-3.5-.4-4.7-1.2c-1.2-.7-2.1-1.9-2.7-3.4-.6-1.4-.8-3-.8-4.7s.3-3.5,1.1-4.8c.7-1.3,1.7-2.4,3-3.1,1.3-.7,2.7-1.1,4.3-1.1s3.2.5,4.5,1.3c1.2.9,2.1,2.2,2.5,3.8l-2.2.7c-.4-1.2-1-2.2-1.8-2.8-.7-.6-1.7-.9-2.9-.9s-2.5.3-3.4,1-1.6,1.5-1.9,2.7c-.4,1.1-.6,2.2-.6,3.4s.2,2.8.7,4c.4,1.1,1.1,2,2.1,2.5.9.6,1.9.8,3,.8s2.4-.4,3.3-1.2c.7-.8,1.3-2,1.6-3.5Z"/>
</svg>