<?xml version="1.0" encoding="UTF-8"?>
<svg id="Layer_1" data-name="Layer 1" xmlns="http://www.w3.org/2000/svg" version="1.1" viewBox="0 0 163 33">
  <defs>
    <style>
      .cls-1 {
        fill: #15a1dc;
      }

      .cls-1, .cls-2 {
        stroke-width: 0px;
      }

      .cls-2 {
        fill: #fff;
      }
    </style>
  </defs>
  <g>
    <path class="cls-2" d="M17.2,2.9h2.8v12.3c0,2.2-.3,3.8-.7,5.1-.5,1.3-1.4,2.3-2.6,3.1-1.3.8-2.9,1.2-5,1.2s-3.6-.4-4.9-1c-1.3-.7-2.2-1.7-2.7-3s-.8-3.1-.8-5.3V2.9h2.7v12.3c0,1.8.2,3.2.5,4.1.4.9.9,1.5,1.8,2.1.8.5,1.8.7,3.1.7,2.1,0,3.5-.5,4.4-1.4s1.3-2.8,1.3-5.4V2.9h.1Z"/>
    <path class="cls-2" d="M24.4,24.3v-15.5h2.4v2.2c1.1-1.7,2.8-2.6,4.9-2.6s1.8.2,2.6.5c.8.4,1.4.8,1.7,1.3.4.6.7,1.2.8,1.9,0,.5.2,1.3.2,2.6v9.5h-2.6v-9.4c0-1.1,0-1.8-.3-2.4-.2-.5-.6-1-1.1-1.3s-1.1-.5-1.8-.5c-1.1,0-2.1.4-2.9,1.1-.8.7-1.2,2.1-1.2,4.1v8.4c-.1.1-2.7.1-2.7.1Z"/>
    <path class="cls-2" d="M41,6v-3h2.6v3h-2.6ZM41,24.3v-15.5h2.6v15.4h-2.6Z"/>
    <path class="cls-2" d="M48.2,24.3v-13.4h-2.3v-2.1h2.3v-1.6c0-1,0-1.8.3-2.3.3-.7.7-1.2,1.3-1.6s1.5-.6,2.7-.6,1.5,0,2.5.3l-.4,2.3c-.7-.2-1.2-.3-1.6-.3-.8,0-1.3.2-1.7.5-.3.4-.5,1-.5,1.9v1.4h3v2.1h-3v13.4h-2.6Z"/>
    <path class="cls-2" d="M55.7,30.2l-.3-2.5c.6.2,1.1.3,1.5.3.6,0,1-.1,1.4-.3.4-.2.6-.5.9-.8.2-.3.4-.9.8-1.9,0-.2,0-.4.3-.6l-5.9-15.6h2.8l3.2,8.9c.4,1.1.8,2.3,1.1,3.6.3-1.2.7-2.4,1.1-3.5l3.3-9h2.6l-5.9,15.7c-.6,1.7-1.1,2.9-1.5,3.5-.5.9-1,1.5-1.6,1.9s-1.3.6-2.2.6-1-.1-1.6-.3Z"/>
    <path class="cls-1" d="M86.2,16.8l2.8.7c-.6,2.3-1.6,4.1-3.2,5.3-1.5,1.2-3.4,1.8-5.6,1.8s-4.2-.5-5.6-1.4-2.5-2.3-3.3-4.1c-.8-1.8-1.1-3.7-1.1-5.7s.4-4.2,1.3-5.8c.9-1.6,2.1-2.9,3.6-3.7,1.6-.9,3.3-1.3,5.2-1.3s3.9.6,5.4,1.6c1.4,1.1,2.5,2.6,3,4.6l-2.7.8c-.5-1.5-1.2-2.7-2.2-3.4-.9-.7-2.1-1.1-3.5-1.1s-3,.4-4.1,1.2-1.9,1.8-2.3,3.2c-.5,1.3-.7,2.7-.7,4.1s.3,3.4.8,4.8c.5,1.3,1.3,2.4,2.5,3,1.1.7,2.3,1,3.6,1s2.9-.5,4-1.4c1-1,1.8-2.4,2.1-4.2Z"/>
    <path class="cls-1" d="M92.2,24.3V2.9h2.6v21.3h-2.6Z"/>
    <path class="cls-1" d="M97.9,16.6c0-2.9.8-5,2.4-6.4,1.3-1.1,2.9-1.7,4.9-1.7s3.8.7,5.2,2.1c1.3,1.4,2,3.3,2,5.7s-.3,3.5-.9,4.7c-.6,1.1-1.5,2-2.6,2.7-1.1.6-2.4.9-3.7.9-2.2,0-3.9-.7-5.2-2.1-1.4-1.3-2.1-3.3-2.1-5.9ZM100.6,16.6c0,2,.4,3.4,1.3,4.5.9,1,1.9,1.5,3.3,1.5s2.4-.5,3.2-1.5c.9-1,1.3-2.5,1.3-4.5s-.4-3.3-1.3-4.4c-.9-1-1.9-1.5-3.2-1.5s-2.4.5-3.3,1.5c-.9.9-1.3,2.4-1.3,4.4Z"/>
    <path class="cls-1" d="M125.5,24.3v-2.3c-1.2,1.7-2.8,2.6-4.9,2.6s-1.7-.2-2.6-.5c-.8-.4-1.4-.8-1.7-1.3-.4-.5-.7-1.2-.8-1.9,0-.5-.2-1.3-.2-2.5v-9.6h2.6v8.6c0,1.4,0,2.3.2,2.8.2.7.5,1.2,1,1.6s1.2.6,2,.6,1.5-.2,2.2-.6,1.2-1,1.4-1.6c.3-.7.4-1.7.4-3v-8.4h2.6v15.4h-2.2Z"/>
    <path class="cls-1" d="M142,24.3v-1.9c-1,1.5-2.4,2.3-4.3,2.3s-2.4-.4-3.4-1c-1-.7-1.8-1.6-2.4-2.8-.6-1.2-.9-2.6-.9-4.2s.3-2.9.8-4.2c.5-1.2,1.3-2.2,2.3-2.9,1-.7,2.2-1,3.4-1s1.7.2,2.5.6c.7.4,1.3.9,1.8,1.5V2.9h2.6v21.3h-2.4ZM133.7,16.6c0,2,.4,3.4,1.2,4.4s1.8,1.5,3,1.5,2.1-.5,2.9-1.4c.8-.9,1.2-2.4,1.2-4.3s-.4-3.6-1.2-4.7c-.8-1-1.8-1.5-3-1.5s-2.2.5-2.9,1.4c-.8,1-1.2,2.5-1.2,4.6Z"/>
  </g>
  <g>
    <path class="cls-1" d="M149.5,8.7V2.9h-2.2v-.8h5.3v.8h-2.2v5.8h-.9Z"/>
    <path class="cls-1" d="M153.4,8.7V2.1h1.3l1.6,4.7c.2.5.3.8.3,1,.1-.3.2-.6.4-1.1l1.6-4.6h1.2v6.7h-.9V3.2l-1.9,5.5h-.8l-1.9-5.7v5.6h-.9Z"/>
  </g>
</svg>