<?xml version="1.0" encoding="utf-8"?>
<!-- Generator: Adobe Illustrator 19.0.0, SVG Export Plug-In . SVG Version: 6.00 Build 0)  -->
<svg version="1.1" id="Layer_1" xmlns="http://www.w3.org/2000/svg" xmlns:xlink="http://www.w3.org/1999/xlink" x="0px" y="0px"
	 viewBox="85 13 204.8 36" style="enable-background:new 85 13 204.8 36;" xml:space="preserve">
<style type="text/css">
	.st0{fill:#1D9FDA;}
	.st1{fill:#4B4D4D;}
</style>
<g>
	<g id="XMLID_7_">
		<path class="st0" d="M106.4,36.9l3.8,0.9c-0.8,3.1-2.2,5.5-4.3,7.1c-2,1.6-4.6,2.4-7.5,2.4c-3.1,0-5.5-0.6-7.5-1.8
			c-1.9-1.3-3.4-3-4.4-5.4c-0.9-2.4-1.5-4.9-1.5-7.7c0-3,0.6-5.5,1.7-7.8c1.1-2.2,2.8-3.9,4.8-5c2.1-1.1,4.4-1.7,6.9-1.7
			c2.8,0,5.3,0.7,7.2,2.2c1.9,1.5,3.3,3.5,4.1,6.1l-3.7,0.9c-0.7-2-1.6-3.6-2.9-4.6c-1.3-0.9-2.8-1.5-4.8-1.5c-2.2,0-4,0.5-5.5,1.6
			s-2.5,2.4-3.1,4.2c-0.6,1.8-0.9,3.6-0.9,5.5c0,2.4,0.3,4.6,1.1,6.3c0.7,1.8,1.8,3.2,3.3,4c1.5,0.9,3.1,1.3,4.8,1.3
			c2.1,0,3.9-0.6,5.3-1.8C104.9,41.1,105.9,39.3,106.4,36.9z"/>
		<path class="st0" d="M114.3,46.9V18.4h3.5v28.5H114.3z"/>
		<path class="st0" d="M122,36.6c0-3.8,1.1-6.7,3.2-8.5c1.8-1.5,4-2.3,6.5-2.3c2.8,0,5.1,0.9,6.9,2.8c1.8,1.8,2.7,4.4,2.7,7.7
			c0,2.6-0.4,4.8-1.2,6.3c-0.8,1.5-2,2.7-3.5,3.6s-3.2,1.3-5,1.3c-2.9,0-5.2-0.9-7-2.8C122.8,42.7,122,40.1,122,36.6z M125.5,36.6
			c0,2.6,0.6,4.6,1.7,5.9s2.6,2,4.4,2c1.7,0,3.2-0.7,4.4-2c1.1-1.3,1.7-3.4,1.7-6.1c0-2.6-0.6-4.5-1.7-5.8c-1.2-1.3-2.6-2-4.4-2
			s-3.2,0.7-4.4,2C126.1,32,125.5,34,125.5,36.6z"/>
		<path class="st0" d="M158.9,46.9v-3c-1.6,2.3-3.8,3.5-6.5,3.5c-1.2,0-2.4-0.3-3.4-0.7c-1.1-0.5-1.8-1.1-2.4-1.8
			c-0.5-0.7-0.9-1.6-1.1-2.6c-0.1-0.7-0.2-1.8-0.2-3.2V26.2h3.5v11.5c0,1.8,0.1,3,0.2,3.7c0.2,0.9,0.7,1.6,1.4,2.2
			c0.7,0.5,1.6,0.8,2.6,0.8c1.1,0,2-0.3,3-0.8c0.9-0.5,1.6-1.3,2-2.2s0.6-2.2,0.6-4V26.2h3.5v20.7H158.9z"/>
		<path class="st0" d="M180.9,46.9v-2.6c-1.3,2-3.2,3.1-5.7,3.1c-1.6,0-3.2-0.5-4.6-1.4s-2.4-2.2-3.2-3.8c-0.7-1.6-1.1-3.5-1.1-5.6
			c0-2,0.3-4,1.1-5.6c0.7-1.6,1.7-3,3.1-3.8c1.4-0.9,2.9-1.3,4.6-1.3c1.3,0,2.4,0.3,3.3,0.8c1,0.5,1.8,1.2,2.4,2V18.4h3.5v28.5
			C184.2,46.9,180.9,46.9,180.9,46.9z M169.9,36.6c0,2.6,0.5,4.6,1.6,5.9s2.4,2,4,2s2.8-0.6,3.9-1.8c1.1-1.3,1.6-3.2,1.6-5.7
			c0-2.8-0.5-4.9-1.6-6.2c-1.1-1.3-2.4-2-4-2s-2.8,0.7-3.9,1.9C170.4,31.8,169.9,33.9,169.9,36.6z"/>
		<path class="st1" d="M187,46.9l11-28.5h4.1l11.7,28.5h-4.3l-3.3-8.6h-12l-3.1,8.6C191,46.9,187,46.9,187,46.9z M195.2,35.2h9.6
			l-3-7.9c-0.9-2.4-1.6-4.4-2-5.9c-0.3,1.8-0.9,3.6-1.5,5.4L195.2,35.2z"/>
		<path class="st1" d="M223.8,43.8l0.5,3.1c-1,0.2-1.8,0.3-2.6,0.3c-1.3,0-2.2-0.2-3-0.6c-0.7-0.4-1.2-0.9-1.5-1.6s-0.4-2-0.4-4.2
			V29h-2.6v-2.7h2.6v-5.1l3.5-2.1v7.2h3.5V29h-3.5v12.1c0,1,0.1,1.6,0.2,1.9s0.3,0.5,0.6,0.7c0.3,0.2,0.7,0.3,1.2,0.3
			C222.7,43.9,223.2,43.8,223.8,43.8z"/>
		<path class="st1" d="M227.2,46.9V18.4h3.5v28.5H227.2z"/>
		<path class="st1" d="M249.6,44.4c-1.3,1.1-2.6,1.8-3.8,2.3c-1.2,0.5-2.5,0.7-3.8,0.7c-2.2,0-4-0.5-5.2-1.6s-1.8-2.5-1.8-4.2
			c0-1,0.2-1.9,0.7-2.8s1.1-1.5,1.8-2c0.7-0.5,1.6-0.9,2.5-1.1c0.7-0.2,1.7-0.3,3.1-0.5c2.8-0.3,4.9-0.7,6.3-1.2c0-0.5,0-0.8,0-0.9
			c0-1.5-0.3-2.4-1-3c-0.9-0.8-2.2-1.2-4-1.2c-1.6,0-2.8,0.3-3.6,0.9c-0.8,0.6-1.4,1.6-1.7,3l-3.4-0.5c0.3-1.5,0.8-2.6,1.5-3.6
			c0.7-0.9,1.7-1.6,3.1-2.1c1.3-0.5,2.9-0.7,4.7-0.7s3.2,0.2,4.3,0.6c1.1,0.4,1.9,0.9,2.4,1.6s0.9,1.5,1.1,2.4
			c0.1,0.6,0.2,1.6,0.2,3.2v4.7c0,3.2,0.1,5.3,0.2,6.2s0.5,1.7,0.9,2.5h-3.6C249.9,46.2,249.7,45.4,249.6,44.4z M249.3,36.5
			c-1.3,0.5-3.2,1-5.7,1.3c-1.5,0.2-2.4,0.5-3,0.7c-0.6,0.3-1.1,0.7-1.4,1.1c-0.3,0.5-0.5,1.1-0.5,1.6c0,0.9,0.3,1.7,1.1,2.3
			c0.8,0.6,1.7,0.9,3.1,0.9c1.3,0,2.6-0.3,3.6-0.9c1.1-0.6,1.8-1.4,2.3-2.4c0.4-0.8,0.6-2,0.6-3.5L249.3,36.5L249.3,36.5z"/>
		<path class="st1" d="M256.9,40.7l3.4-0.5c0.2,1.4,0.7,2.4,1.6,3.2c0.9,0.7,2.1,1.1,3.7,1.1s2.8-0.3,3.6-1c0.8-0.7,1.2-1.5,1.2-2.3
			s-0.3-1.4-1.1-1.8c-0.5-0.3-1.6-0.7-3.6-1.2c-2.6-0.7-4.4-1.2-5.3-1.6s-1.7-1.1-2.2-2s-0.8-1.8-0.8-2.8c0-0.9,0.2-1.8,0.7-2.6
			c0.4-0.8,1-1.5,1.7-2c0.5-0.4,1.3-0.7,2.2-1c0.9-0.3,2-0.4,3-0.4c1.6,0,3,0.3,4.3,0.7s2.1,1.1,2.7,1.9s1,1.8,1.2,3.2l-3.4,0.5
			c-0.1-1.1-0.6-1.9-1.3-2.5c-0.7-0.6-1.8-0.9-3.2-0.9c-1.6,0-2.8,0.3-3.4,0.8c-0.7,0.5-1.1,1.1-1.1,1.8c0,0.5,0.1,0.9,0.4,1.3
			s0.7,0.7,1.3,0.9c0.3,0.1,1.4,0.4,3.1,0.9c2.5,0.7,4.2,1.2,5.2,1.6s1.7,1.1,2.3,1.8c0.5,0.8,0.9,1.8,0.9,3s-0.3,2.2-1,3.3
			s-1.6,1.8-3,2.4c-1.3,0.5-2.7,0.9-4.4,0.9c-2.7,0-4.8-0.5-6.1-1.6C258.1,44.6,257.3,42.9,256.9,40.7z"/>
	</g>
	<g id="XMLID_5_">
		<g>
			<path class="st1" d="M283,15.1c3.4,0,6.1,2.8,6.1,6.1c0,3.3-2.8,6.1-6.1,6.1s-6.1-2.8-6.1-6.1S279.6,15.1,283,15.1 M283,14.5
				c-3.8,0-6.8,3-6.8,6.8s3,6.8,6.8,6.8s6.8-3,6.8-6.7C289.8,17.7,286.8,14.5,283,14.5L283,14.5z"/>
		</g>
	</g>
	<g id="XMLID_3_">
		<path class="st1" d="M279.9,24.8v-6.9h3c0.6,0,1.1,0.1,1.4,0.2s0.6,0.3,0.8,0.7c0.2,0.4,0.3,0.7,0.3,1.1c0,0.5-0.1,0.9-0.5,1.3
			c-0.3,0.3-0.8,0.5-1.5,0.7c0.3,0.1,0.4,0.2,0.5,0.3c0.3,0.3,0.5,0.5,0.7,0.9l1.2,1.8h-1l-0.9-1.6c-0.3-0.4-0.5-0.7-0.7-0.9
			c-0.2-0.2-0.3-0.4-0.5-0.5c-0.1-0.1-0.3-0.1-0.4-0.2c-0.1,0-0.3,0-0.5,0h-1v3L279.9,24.8L279.9,24.8z M280.8,21h2
			c0.4,0,0.7-0.1,1-0.1c0.3-0.1,0.4-0.2,0.5-0.4s0.2-0.4,0.2-0.6c0-0.3-0.1-0.6-0.3-0.8c-0.3-0.2-0.6-0.3-1.1-0.3h-2.2L280.8,21
			L280.8,21z"/>
	</g>
</g>
</svg>
