<svg width="428" height="50" viewBox="0 0 428 50" fill="none" xmlns="http://www.w3.org/2000/svg">
<path d="M15.9951 40.514C11.7325 40.514 8.32648 39.116 5.77714 36.3199C3.2415 33.5101 1.97368 29.7135 1.97368 24.9301C1.97368 20.1467 3.2415 16.3569 5.77714 13.5609C8.32648 10.7511 11.7325 9.34622 15.9951 9.34622C19.2708 9.34622 22.06 10.2303 24.3627 11.9984C26.6653 13.7664 27.9605 16.0965 28.2484 18.9885H24.1365C23.972 17.0833 23.1428 15.5688 21.6488 14.4449C20.1686 13.321 18.2977 12.759 16.0362 12.759C12.9797 12.759 10.5606 13.8144 8.77878 15.9252C6.99698 18.0222 6.10609 21.0238 6.10609 24.9301C6.10609 28.8226 6.99013 31.8243 8.75822 33.935C10.5263 36.0458 12.9249 37.1012 15.9539 37.1012C18.3114 37.1012 20.2166 36.5255 21.6694 35.3742C23.1223 34.2229 23.9446 32.5781 24.1365 30.44H28.2484C27.9605 33.6472 26.6996 36.128 24.4655 37.8824C22.2314 39.6368 19.4079 40.514 15.9951 40.514ZM37.1711 40H33.2854V9.8602H37.1711V40ZM51.7475 17.6933C54.8588 17.6933 57.3396 18.687 59.19 20.6743C61.054 22.6617 61.986 25.4715 61.986 29.1036C61.986 32.722 61.054 35.5318 59.19 37.5329C57.3396 39.5203 54.8588 40.514 51.7475 40.514C48.6499 40.514 46.1691 39.5203 44.3051 37.5329C42.4548 35.5318 41.5296 32.722 41.5296 29.1036C41.5296 25.4715 42.4548 22.6617 44.3051 20.6743C46.1691 18.687 48.6499 17.6933 51.7475 17.6933ZM51.7475 37.4712C53.5979 37.4712 55.0987 36.7722 56.25 35.3742C57.4013 33.9624 57.977 31.8723 57.977 29.1036C57.977 26.3213 57.4013 24.2311 56.25 22.8331C55.0987 21.4213 53.5979 20.7155 51.7475 20.7155C49.8972 20.7155 48.3964 21.4213 47.2451 22.8331C46.0938 24.2311 45.5181 26.3213 45.5181 29.1036C45.5181 31.8723 46.0938 33.9624 47.2451 35.3742C48.3964 36.7722 49.8972 37.4712 51.7475 37.4712ZM80.1604 37.2245C78.2278 39.4175 76.0554 40.514 73.6431 40.514C68.7226 40.514 66.2623 37.8276 66.2623 32.4548V18.1867H70.148V32.2903C70.148 34.0721 70.4633 35.3536 71.0938 36.1349C71.7242 36.9161 72.7659 37.3067 74.2188 37.3067C76.3843 37.3067 78.3649 36.1417 80.1604 33.8117V18.1867H84.0255V40H80.1604V37.2245ZM103.598 33.7294V23.3676C101.926 21.5995 100.014 20.7155 97.8618 20.7155C96.2034 20.7155 94.8739 21.435 93.8734 22.8742C92.8865 24.2996 92.3931 26.4309 92.3931 29.2681C92.3931 31.9545 92.8591 33.9967 93.7911 35.3947C94.7368 36.7791 96.0389 37.4712 97.6974 37.4712C99.8629 37.4712 101.83 36.224 103.598 33.7294ZM103.598 37.389C101.871 39.4723 99.7944 40.514 97.3684 40.514C94.5175 40.514 92.3109 39.4997 90.7484 37.4712C89.1859 35.4427 88.4046 32.7083 88.4046 29.2681C88.4046 25.7045 89.2749 22.8879 91.0156 20.8183C92.77 18.7349 94.9698 17.6933 97.6151 17.6933C99.9726 17.6933 101.967 18.4197 103.598 19.8725V9.8602H107.463V40H103.598V37.389Z" fill="#1D9FDA"/>
<path d="M129.317 27.6645L124.013 13.6842L118.956 27.6645H129.317ZM138.487 40H133.984L130.489 30.8306H117.866L114.535 40H110.321L121.896 9.8602H126.192L138.487 40ZM149.774 40.0411C148.924 40.2056 147.999 40.2878 146.998 40.2878C145.408 40.2878 144.243 40.0069 143.503 39.4449C142.763 38.8692 142.304 38.136 142.126 37.2451C141.948 36.3542 141.859 35.1412 141.859 33.6061V21.2294H139.165V18.1867H141.859V12.759H145.724V18.1867H149.26V21.2294H145.724V33.8117C145.724 35.3056 145.909 36.2582 146.279 36.6694C146.663 37.0669 147.183 37.2656 147.841 37.2656C148.513 37.2656 149.157 37.2108 149.774 37.1012V40.0411ZM156.908 40H153.022V9.8602H156.908V40ZM176.46 34.264V29.4326H173.808C168.188 29.4326 165.378 30.9608 165.378 34.0173C165.378 35.1275 165.789 35.9841 166.612 36.5872C167.434 37.1765 168.544 37.4712 169.942 37.4712C171.217 37.4712 172.451 37.1834 173.643 36.6077C174.836 36.0321 175.774 35.2508 176.46 34.264ZM176.46 37.759C174.486 39.5957 171.944 40.514 168.832 40.514C166.667 40.514 164.885 39.9315 163.487 38.7664C162.089 37.5877 161.39 36.0732 161.39 34.2229C161.39 29.1242 165.783 26.5748 174.568 26.5748H176.46C176.46 25.0123 176.377 23.8816 176.213 23.1826C176.049 22.4698 175.589 21.8805 174.836 21.4145C174.082 20.9485 172.882 20.7155 171.238 20.7155C167.784 20.7155 166.002 21.949 165.892 24.4161H162.027C162.315 19.9342 165.454 17.6933 171.443 17.6933C174.239 17.6933 176.419 18.2484 177.981 19.3586C179.544 20.4688 180.325 22.648 180.325 25.8964V40H176.46V37.759ZM193.873 40.514C187.911 40.514 184.793 38.1702 184.519 33.4827H188.405C188.432 36.1417 190.241 37.4712 193.832 37.4712C195.436 37.4712 196.656 37.1423 197.492 36.4844C198.342 35.8128 198.766 34.9767 198.766 33.9762C198.766 32.9893 198.355 32.2971 197.533 31.8997C196.711 31.4885 195.011 30.9608 192.434 30.3166C189.871 29.6724 187.993 28.9529 186.801 28.1579C185.622 27.3629 185.033 25.9649 185.033 23.9638C185.033 22.1546 185.766 20.6606 187.233 19.4819C188.713 18.2895 190.687 17.6933 193.154 17.6933C198.869 17.6933 201.789 19.7286 201.912 23.7993H198.047C197.91 21.7434 196.368 20.7155 193.421 20.7155C192.119 20.7155 191.036 20.9622 190.173 21.4556C189.323 21.949 188.898 22.6686 188.898 23.6143C188.898 24.4641 189.227 25.0809 189.885 25.4646C190.543 25.8347 192.187 26.3418 194.819 26.986C197.464 27.6165 199.424 28.3566 200.699 29.2064C201.987 30.0562 202.632 31.5228 202.632 33.6061C202.632 35.5935 201.837 37.2451 200.247 38.5609C198.67 39.8629 196.546 40.514 193.873 40.514Z" fill="#4B4D4D"/>
<path d="M242.461 39.2529C240.928 39.9951 238.926 40.3662 236.455 40.3662C233.232 40.3662 230.698 39.4189 228.853 37.5244C227.007 35.6299 226.084 33.1055 226.084 29.9512C226.084 26.5918 227.119 23.8672 229.189 21.7773C231.27 19.6875 233.965 18.6426 237.275 18.6426C239.326 18.6426 241.055 18.9014 242.461 19.4189V23.9746C241.055 23.1348 239.453 22.7148 237.656 22.7148C235.684 22.7148 234.092 23.335 232.881 24.5752C231.67 25.8154 231.064 27.4951 231.064 29.6143C231.064 31.6455 231.636 33.2666 232.778 34.4775C233.921 35.6787 235.459 36.2793 237.393 36.2793C239.238 36.2793 240.928 35.8301 242.461 34.9316V39.2529ZM259.951 25L253.857 41.2012C252.393 45.0977 250.186 47.0459 247.236 47.0459C246.113 47.0459 245.19 46.9189 244.468 46.665V42.9736C245.083 43.335 245.752 43.5156 246.475 43.5156C247.666 43.5156 248.496 42.9541 248.965 41.8311L249.756 39.9707L243.662 25H248.789L251.587 34.126C251.763 34.6924 251.899 35.3613 251.997 36.1328H252.056C252.144 35.5664 252.305 34.9072 252.539 34.1553L255.366 25H259.951ZM266.499 38.2568H266.44V40H261.812V17.793H266.44V27.2559H266.499C267.642 25.5078 269.268 24.6338 271.377 24.6338C273.311 24.6338 274.8 25.2979 275.845 26.626C276.89 27.9541 277.412 29.7705 277.412 32.0752C277.412 34.5752 276.802 36.582 275.581 38.0957C274.36 39.6094 272.729 40.3662 270.688 40.3662C268.843 40.3662 267.446 39.6631 266.499 38.2568ZM266.367 31.9287V33.4668C266.367 34.4336 266.646 35.2344 267.202 35.8691C267.759 36.5039 268.472 36.8213 269.341 36.8213C270.396 36.8213 271.211 36.416 271.787 35.6055C272.373 34.7852 272.666 33.6279 272.666 32.1338C272.666 30.8936 272.397 29.9268 271.86 29.2334C271.333 28.5303 270.576 28.1787 269.59 28.1787C268.662 28.1787 267.891 28.5254 267.275 29.2188C266.67 29.9121 266.367 30.8154 266.367 31.9287ZM293.892 33.8184H284.106C284.263 35.9961 285.635 37.085 288.223 37.085C289.873 37.085 291.323 36.6943 292.573 35.9131V39.2529C291.187 39.9951 289.385 40.3662 287.168 40.3662C284.746 40.3662 282.866 39.6973 281.528 38.3594C280.19 37.0117 279.521 35.1367 279.521 32.7344C279.521 30.2441 280.244 28.2715 281.689 26.8164C283.135 25.3613 284.912 24.6338 287.021 24.6338C289.209 24.6338 290.898 25.2832 292.09 26.582C293.291 27.8809 293.892 29.6436 293.892 31.8701V33.8184ZM289.6 30.9766C289.6 28.8281 288.73 27.7539 286.992 27.7539C286.25 27.7539 285.605 28.0615 285.059 28.6768C284.521 29.292 284.194 30.0586 284.077 30.9766H289.6ZM306.431 29.1748C305.874 28.8721 305.225 28.7207 304.482 28.7207C303.477 28.7207 302.69 29.0918 302.124 29.834C301.558 30.5664 301.274 31.5674 301.274 32.8369V40H296.646V25H301.274V27.7832H301.333C302.065 25.752 303.384 24.7363 305.288 24.7363C305.776 24.7363 306.157 24.7949 306.431 24.9121V29.1748ZM307.617 39.6045V35.8545C308.379 36.3135 309.136 36.6553 309.888 36.8799C310.649 37.1045 311.367 37.2168 312.041 37.2168C312.861 37.2168 313.506 37.1045 313.975 36.8799C314.453 36.6553 314.692 36.3135 314.692 35.8545C314.692 35.5615 314.585 35.3174 314.37 35.1221C314.155 34.9268 313.877 34.7559 313.535 34.6094C313.203 34.4629 312.837 34.3311 312.437 34.2139C312.036 34.0967 311.65 33.9648 311.279 33.8184C310.684 33.5938 310.156 33.3545 309.697 33.1006C309.248 32.8369 308.867 32.5342 308.555 32.1924C308.252 31.8506 308.018 31.4551 307.852 31.0059C307.695 30.5566 307.617 30.0244 307.617 29.4092C307.617 28.5693 307.798 27.8467 308.159 27.2412C308.53 26.6357 309.019 26.1426 309.624 25.7617C310.239 25.3711 310.938 25.0879 311.719 24.9121C312.51 24.7266 313.33 24.6338 314.18 24.6338C314.844 24.6338 315.518 24.6875 316.201 24.7949C316.885 24.8926 317.559 25.0391 318.223 25.2344V28.8086C317.637 28.4668 317.007 28.2129 316.333 28.0469C315.669 27.8711 315.015 27.7832 314.37 27.7832C314.067 27.7832 313.779 27.8125 313.506 27.8711C313.242 27.9199 313.008 27.998 312.803 28.1055C312.598 28.2031 312.437 28.335 312.319 28.501C312.202 28.6572 312.144 28.8379 312.144 29.043C312.144 29.3164 312.231 29.5508 312.407 29.7461C312.583 29.9414 312.812 30.1123 313.096 30.2588C313.379 30.3955 313.691 30.5225 314.033 30.6396C314.385 30.7471 314.731 30.8594 315.073 30.9766C315.688 31.1914 316.245 31.4258 316.743 31.6797C317.241 31.9336 317.666 32.2314 318.018 32.5732C318.379 32.915 318.652 33.3154 318.838 33.7744C319.033 34.2334 319.131 34.7803 319.131 35.415C319.131 36.3037 318.936 37.0654 318.545 37.7002C318.164 38.3252 317.651 38.8379 317.007 39.2383C316.372 39.6289 315.635 39.9121 314.795 40.0879C313.965 40.2734 313.101 40.3662 312.202 40.3662C310.552 40.3662 309.023 40.1123 307.617 39.6045ZM335.288 33.8184H325.503C325.659 35.9961 327.031 37.085 329.619 37.085C331.27 37.085 332.72 36.6943 333.97 35.9131V39.2529C332.583 39.9951 330.781 40.3662 328.564 40.3662C326.143 40.3662 324.263 39.6973 322.925 38.3594C321.587 37.0117 320.918 35.1367 320.918 32.7344C320.918 30.2441 321.641 28.2715 323.086 26.8164C324.531 25.3613 326.309 24.6338 328.418 24.6338C330.605 24.6338 332.295 25.2832 333.486 26.582C334.688 27.8809 335.288 29.6436 335.288 31.8701V33.8184ZM330.996 30.9766C330.996 28.8281 330.127 27.7539 328.389 27.7539C327.646 27.7539 327.002 28.0615 326.455 28.6768C325.918 29.292 325.591 30.0586 325.474 30.9766H330.996ZM349.409 39.458C348.364 40.0635 346.855 40.3662 344.883 40.3662C342.578 40.3662 340.713 39.668 339.287 38.2715C337.861 36.875 337.148 35.0732 337.148 32.8662C337.148 30.3174 337.91 28.3105 339.434 26.8457C340.967 25.3711 343.013 24.6338 345.571 24.6338C347.339 24.6338 348.618 24.8682 349.409 25.3369V29.2627C348.442 28.54 347.363 28.1787 346.172 28.1787C344.844 28.1787 343.789 28.5693 343.008 29.3506C342.236 30.1221 341.851 31.1914 341.851 32.5586C341.851 33.8867 342.222 34.9316 342.964 35.6934C343.706 36.4453 344.727 36.8213 346.025 36.8213C347.178 36.8213 348.306 36.46 349.409 35.7373V39.458ZM366.709 40H362.095V37.7148H362.021C360.879 39.4824 359.351 40.3662 357.437 40.3662C353.96 40.3662 352.222 38.2617 352.222 34.0527V25H356.836V33.6426C356.836 35.7617 357.676 36.8213 359.355 36.8213C360.186 36.8213 360.85 36.5332 361.348 35.957C361.846 35.3711 362.095 34.5801 362.095 33.584V25H366.709V40ZM380.405 29.1748C379.849 28.8721 379.199 28.7207 378.457 28.7207C377.451 28.7207 376.665 29.0918 376.099 29.834C375.532 30.5664 375.249 31.5674 375.249 32.8369V40H370.62V25H375.249V27.7832H375.308C376.04 25.752 377.358 24.7363 379.263 24.7363C379.751 24.7363 380.132 24.7949 380.405 24.9121V29.1748ZM384.917 22.627C384.136 22.627 383.496 22.3975 382.998 21.9385C382.5 21.4697 382.251 20.8984 382.251 20.2246C382.251 19.5312 382.5 18.9648 382.998 18.5254C383.496 18.0859 384.136 17.8662 384.917 17.8662C385.708 17.8662 386.348 18.0859 386.836 18.5254C387.334 18.9648 387.583 19.5312 387.583 20.2246C387.583 20.9277 387.334 21.5039 386.836 21.9531C386.348 22.4023 385.708 22.627 384.917 22.627ZM387.202 40H382.573V25H387.202V40ZM400.166 39.8242C399.482 40.1855 398.452 40.3662 397.075 40.3662C393.813 40.3662 392.183 38.6719 392.183 35.2832V28.4131H389.751V25H392.183V21.7627L396.797 20.4443V25H400.166V28.4131H396.797V34.4775C396.797 36.04 397.417 36.8213 398.657 36.8213C399.146 36.8213 399.648 36.6797 400.166 36.3965V39.8242ZM417.07 25L410.977 41.2012C409.512 45.0977 407.305 47.0459 404.355 47.0459C403.232 47.0459 402.31 46.9189 401.587 46.665V42.9736C402.202 43.335 402.871 43.5156 403.594 43.5156C404.785 43.5156 405.615 42.9541 406.084 41.8311L406.875 39.9707L400.781 25H405.908L408.706 34.126C408.882 34.6924 409.019 35.3613 409.116 36.1328H409.175C409.263 35.5664 409.424 34.9072 409.658 34.1553L412.485 25H417.07Z" fill="#1D9FDA"/>
<path d="M210.225 5.09282C213.035 5.09282 215.267 7.36825 215.267 10.05C215.267 12.7318 212.953 15.0072 210.225 15.0072C207.498 15.0072 205.184 12.7318 205.184 10.05C205.184 7.36825 207.415 5.09282 210.225 5.09282ZM210.225 4.60522C207.085 4.60522 204.605 7.04318 204.605 10.1313C204.605 13.2194 207.085 15.6573 210.225 15.6573C213.366 15.6573 215.845 13.2194 215.845 10.2125C215.845 7.20572 213.366 4.60522 210.225 4.60522Z" fill="#4B4D4D"/>
<path d="M207.787 12.8941V7.2868H210.267C210.763 7.2868 211.176 7.36807 211.424 7.44934C211.672 7.5306 211.92 7.69313 212.085 8.01819C212.25 8.34325 212.333 8.58705 212.333 8.91211C212.333 9.31844 212.25 9.6435 211.92 9.96856C211.672 10.2124 211.259 10.3749 210.68 10.5374C210.928 10.6187 211.011 10.6999 211.093 10.7812C211.341 11.025 211.506 11.1875 211.672 11.5126L212.664 12.9754H211.837L211.093 11.6751C210.845 11.3501 210.68 11.1063 210.515 10.9437C210.349 10.7812 210.267 10.6187 210.101 10.5374C210.019 10.4562 209.853 10.4562 209.771 10.3749C209.688 10.3749 209.523 10.3749 209.358 10.3749H208.531V12.8128L207.787 12.8941ZM208.531 9.80603H210.184C210.515 9.80603 210.763 9.72476 211.011 9.72476C211.259 9.6435 211.341 9.56223 211.424 9.3997C211.506 9.23717 211.589 9.07464 211.589 8.91211C211.589 8.66832 211.506 8.42452 211.341 8.26199C211.093 8.09946 210.845 8.01819 210.432 8.01819H208.614L208.531 9.80603Z" fill="#4B4D4D"/>
</svg>
