<svg width="410" height="50" viewBox="0 0 410 50" fill="none" xmlns="http://www.w3.org/2000/svg">
<path d="M15.9951 40.514C11.7325 40.514 8.32648 39.116 5.77714 36.3199C3.2415 33.5101 1.97368 29.7135 1.97368 24.9301C1.97368 20.1467 3.2415 16.3569 5.77714 13.5609C8.32648 10.7511 11.7325 9.34622 15.9951 9.34622C19.2708 9.34622 22.06 10.2303 24.3627 11.9984C26.6653 13.7664 27.9605 16.0965 28.2484 18.9885H24.1365C23.972 17.0833 23.1428 15.5688 21.6488 14.4449C20.1686 13.321 18.2977 12.759 16.0362 12.759C12.9797 12.759 10.5606 13.8144 8.77878 15.9252C6.99698 18.0222 6.10609 21.0238 6.10609 24.9301C6.10609 28.8226 6.99013 31.8243 8.75822 33.935C10.5263 36.0458 12.9249 37.1012 15.9539 37.1012C18.3114 37.1012 20.2166 36.5255 21.6694 35.3742C23.1223 34.2229 23.9446 32.5781 24.1365 30.44H28.2484C27.9605 33.6472 26.6996 36.128 24.4655 37.8824C22.2314 39.6368 19.4079 40.514 15.9951 40.514ZM37.1711 40H33.2854V9.8602H37.1711V40ZM51.7475 17.6933C54.8588 17.6933 57.3396 18.687 59.19 20.6743C61.054 22.6617 61.986 25.4715 61.986 29.1036C61.986 32.722 61.054 35.5318 59.19 37.5329C57.3396 39.5203 54.8588 40.514 51.7475 40.514C48.6499 40.514 46.1691 39.5203 44.3051 37.5329C42.4548 35.5318 41.5296 32.722 41.5296 29.1036C41.5296 25.4715 42.4548 22.6617 44.3051 20.6743C46.1691 18.687 48.6499 17.6933 51.7475 17.6933ZM51.7475 37.4712C53.5979 37.4712 55.0987 36.7722 56.25 35.3742C57.4013 33.9624 57.977 31.8723 57.977 29.1036C57.977 26.3213 57.4013 24.2311 56.25 22.8331C55.0987 21.4213 53.5979 20.7155 51.7475 20.7155C49.8972 20.7155 48.3964 21.4213 47.2451 22.8331C46.0938 24.2311 45.5181 26.3213 45.5181 29.1036C45.5181 31.8723 46.0938 33.9624 47.2451 35.3742C48.3964 36.7722 49.8972 37.4712 51.7475 37.4712ZM80.1604 37.2245C78.2278 39.4175 76.0554 40.514 73.6431 40.514C68.7226 40.514 66.2623 37.8276 66.2623 32.4548V18.1867H70.148V32.2903C70.148 34.0721 70.4633 35.3536 71.0938 36.1349C71.7242 36.9161 72.7659 37.3067 74.2188 37.3067C76.3843 37.3067 78.3649 36.1417 80.1604 33.8117V18.1867H84.0255V40H80.1604V37.2245ZM103.598 33.7294V23.3676C101.926 21.5995 100.014 20.7155 97.8618 20.7155C96.2034 20.7155 94.8739 21.435 93.8734 22.8742C92.8865 24.2996 92.3931 26.4309 92.3931 29.2681C92.3931 31.9545 92.8591 33.9967 93.7911 35.3947C94.7368 36.7791 96.0389 37.4712 97.6974 37.4712C99.8629 37.4712 101.83 36.224 103.598 33.7294ZM103.598 37.389C101.871 39.4723 99.7944 40.514 97.3684 40.514C94.5175 40.514 92.3109 39.4997 90.7484 37.4712C89.1859 35.4427 88.4046 32.7083 88.4046 29.2681C88.4046 25.7045 89.2749 22.8879 91.0156 20.8183C92.77 18.7349 94.9698 17.6933 97.6151 17.6933C99.9726 17.6933 101.967 18.4197 103.598 19.8725V9.8602H107.463V40H103.598V37.389Z" fill="#1D9FDA"/>
<path d="M129.317 27.6645L124.013 13.6842L118.956 27.6645H129.317ZM138.487 40H133.984L130.489 30.8306H117.866L114.535 40H110.321L121.896 9.8602H126.192L138.487 40ZM149.774 40.0411C148.924 40.2056 147.999 40.2878 146.998 40.2878C145.408 40.2878 144.243 40.0069 143.503 39.4449C142.763 38.8692 142.304 38.136 142.126 37.2451C141.948 36.3542 141.859 35.1412 141.859 33.6061V21.2294H139.165V18.1867H141.859V12.759H145.724V18.1867H149.26V21.2294H145.724V33.8117C145.724 35.3056 145.909 36.2582 146.279 36.6694C146.663 37.0669 147.183 37.2656 147.841 37.2656C148.513 37.2656 149.157 37.2108 149.774 37.1012V40.0411ZM156.908 40H153.022V9.8602H156.908V40ZM176.46 34.264V29.4326H173.808C168.188 29.4326 165.378 30.9608 165.378 34.0173C165.378 35.1275 165.789 35.9841 166.612 36.5872C167.434 37.1765 168.544 37.4712 169.942 37.4712C171.217 37.4712 172.451 37.1834 173.643 36.6077C174.836 36.0321 175.774 35.2508 176.46 34.264ZM176.46 37.759C174.486 39.5957 171.944 40.514 168.832 40.514C166.667 40.514 164.885 39.9315 163.487 38.7664C162.089 37.5877 161.39 36.0732 161.39 34.2229C161.39 29.1242 165.783 26.5748 174.568 26.5748H176.46C176.46 25.0123 176.377 23.8816 176.213 23.1826C176.049 22.4698 175.589 21.8805 174.836 21.4145C174.082 20.9485 172.882 20.7155 171.238 20.7155C167.784 20.7155 166.002 21.949 165.892 24.4161H162.027C162.315 19.9342 165.454 17.6933 171.443 17.6933C174.239 17.6933 176.419 18.2484 177.981 19.3586C179.544 20.4688 180.325 22.648 180.325 25.8964V40H176.46V37.759ZM193.873 40.514C187.911 40.514 184.793 38.1702 184.519 33.4827H188.405C188.432 36.1417 190.241 37.4712 193.832 37.4712C195.436 37.4712 196.656 37.1423 197.492 36.4844C198.342 35.8128 198.766 34.9767 198.766 33.9762C198.766 32.9893 198.355 32.2971 197.533 31.8997C196.711 31.4885 195.011 30.9608 192.434 30.3166C189.871 29.6724 187.993 28.9529 186.801 28.1579C185.622 27.3629 185.033 25.9649 185.033 23.9638C185.033 22.1546 185.766 20.6606 187.233 19.4819C188.713 18.2895 190.687 17.6933 193.154 17.6933C198.869 17.6933 201.789 19.7286 201.912 23.7993H198.047C197.91 21.7434 196.368 20.7155 193.421 20.7155C192.119 20.7155 191.036 20.9622 190.173 21.4556C189.323 21.949 188.898 22.6686 188.898 23.6143C188.898 24.4641 189.227 25.0809 189.885 25.4646C190.543 25.8347 192.187 26.3418 194.819 26.986C197.464 27.6165 199.424 28.3566 200.699 29.2064C201.987 30.0562 202.632 31.5228 202.632 33.6061C202.632 35.5935 201.837 37.2451 200.247 38.5609C198.67 39.8629 196.546 40.514 193.873 40.514Z" fill="#4B4D4D"/>
<path d="M227.402 40V18.9941H234.844C242.305 18.9941 246.035 22.4072 246.035 29.2334C246.035 32.5049 245.015 35.1172 242.974 37.0703C240.942 39.0234 238.232 40 234.844 40H227.402ZM232.134 22.8467V36.1621H234.478C236.528 36.1621 238.135 35.5469 239.297 34.3164C240.469 33.0859 241.055 31.4111 241.055 29.292C241.055 27.29 240.474 25.7178 239.312 24.5752C238.159 23.4229 236.538 22.8467 234.448 22.8467H232.134ZM262.544 33.8184H252.759C252.915 35.9961 254.287 37.085 256.875 37.085C258.525 37.085 259.976 36.6943 261.226 35.9131V39.2529C259.839 39.9951 258.037 40.3662 255.82 40.3662C253.398 40.3662 251.519 39.6973 250.181 38.3594C248.843 37.0117 248.174 35.1367 248.174 32.7344C248.174 30.2441 248.896 28.2715 250.342 26.8164C251.787 25.3613 253.564 24.6338 255.674 24.6338C257.861 24.6338 259.551 25.2832 260.742 26.582C261.943 27.8809 262.544 29.6436 262.544 31.8701V33.8184ZM258.252 30.9766C258.252 28.8281 257.383 27.7539 255.645 27.7539C254.902 27.7539 254.258 28.0615 253.711 28.6768C253.174 29.292 252.847 30.0586 252.729 30.9766H258.252ZM269.985 38.2568H269.927V46.8994H265.298V25H269.927V27.2559H269.985C271.128 25.5078 272.734 24.6338 274.805 24.6338C276.748 24.6338 278.247 25.3027 279.302 26.6406C280.366 27.9688 280.898 29.7803 280.898 32.0752C280.898 34.5752 280.278 36.582 279.038 38.0957C277.808 39.6094 276.167 40.3662 274.116 40.3662C272.31 40.3662 270.933 39.6631 269.985 38.2568ZM269.854 32.1045V33.3057C269.854 34.3408 270.127 35.1855 270.674 35.8398C271.221 36.4941 271.938 36.8213 272.827 36.8213C273.882 36.8213 274.697 36.416 275.273 35.6055C275.859 34.7852 276.152 33.6279 276.152 32.1338C276.152 29.4971 275.127 28.1787 273.076 28.1787C272.129 28.1787 271.353 28.54 270.747 29.2627C270.151 29.9756 269.854 30.9229 269.854 32.1045ZM297.378 33.8184H287.593C287.749 35.9961 289.121 37.085 291.709 37.085C293.359 37.085 294.81 36.6943 296.06 35.9131V39.2529C294.673 39.9951 292.871 40.3662 290.654 40.3662C288.232 40.3662 286.353 39.6973 285.015 38.3594C283.677 37.0117 283.008 35.1367 283.008 32.7344C283.008 30.2441 283.73 28.2715 285.176 26.8164C286.621 25.3613 288.398 24.6338 290.508 24.6338C292.695 24.6338 294.385 25.2832 295.576 26.582C296.777 27.8809 297.378 29.6436 297.378 31.8701V33.8184ZM293.086 30.9766C293.086 28.8281 292.217 27.7539 290.479 27.7539C289.736 27.7539 289.092 28.0615 288.545 28.6768C288.008 29.292 287.681 30.0586 287.563 30.9766H293.086ZM314.619 40H310.005V31.665C310.005 29.3408 309.175 28.1787 307.515 28.1787C306.714 28.1787 306.055 28.4863 305.537 29.1016C305.02 29.7168 304.761 30.498 304.761 31.4453V40H300.132V25H304.761V27.373H304.819C305.923 25.5469 307.529 24.6338 309.639 24.6338C312.959 24.6338 314.619 26.6943 314.619 30.8154V40ZM332.974 40H328.345V37.9346H328.286C327.231 39.5557 325.684 40.3662 323.643 40.3662C321.768 40.3662 320.259 39.707 319.116 38.3887C317.974 37.0605 317.402 35.21 317.402 32.8369C317.402 30.3564 318.032 28.3691 319.292 26.875C320.552 25.3809 322.202 24.6338 324.243 24.6338C326.177 24.6338 327.524 25.3271 328.286 26.7139H328.345V17.793H332.974V40ZM328.433 32.7051V31.5771C328.433 30.6006 328.149 29.79 327.583 29.1455C327.017 28.501 326.279 28.1787 325.371 28.1787C324.346 28.1787 323.545 28.584 322.969 29.3945C322.393 30.1953 322.104 31.2988 322.104 32.7051C322.104 34.0234 322.383 35.0391 322.939 35.752C323.496 36.4648 324.268 36.8213 325.254 36.8213C326.191 36.8213 326.953 36.4453 327.539 35.6934C328.135 34.9414 328.433 33.9453 328.433 32.7051ZM350.347 33.8184H340.562C340.718 35.9961 342.09 37.085 344.678 37.085C346.328 37.085 347.778 36.6943 349.028 35.9131V39.2529C347.642 39.9951 345.84 40.3662 343.623 40.3662C341.201 40.3662 339.321 39.6973 337.983 38.3594C336.646 37.0117 335.977 35.1367 335.977 32.7344C335.977 30.2441 336.699 28.2715 338.145 26.8164C339.59 25.3613 341.367 24.6338 343.477 24.6338C345.664 24.6338 347.354 25.2832 348.545 26.582C349.746 27.8809 350.347 29.6436 350.347 31.8701V33.8184ZM346.055 30.9766C346.055 28.8281 345.186 27.7539 343.447 27.7539C342.705 27.7539 342.061 28.0615 341.514 28.6768C340.977 29.292 340.649 30.0586 340.532 30.9766H346.055ZM367.588 40H362.974V31.665C362.974 29.3408 362.144 28.1787 360.483 28.1787C359.683 28.1787 359.023 28.4863 358.506 29.1016C357.988 29.7168 357.729 30.498 357.729 31.4453V40H353.101V25H357.729V27.373H357.788C358.892 25.5469 360.498 24.6338 362.607 24.6338C365.928 24.6338 367.588 26.6943 367.588 30.8154V40ZM382.632 39.458C381.587 40.0635 380.078 40.3662 378.105 40.3662C375.801 40.3662 373.936 39.668 372.51 38.2715C371.084 36.875 370.371 35.0732 370.371 32.8662C370.371 30.3174 371.133 28.3105 372.656 26.8457C374.189 25.3711 376.235 24.6338 378.794 24.6338C380.562 24.6338 381.841 24.8682 382.632 25.3369V29.2627C381.665 28.54 380.586 28.1787 379.395 28.1787C378.066 28.1787 377.012 28.5693 376.23 29.3506C375.459 30.1221 375.073 31.1914 375.073 32.5586C375.073 33.8867 375.444 34.9316 376.187 35.6934C376.929 36.4453 377.949 36.8213 379.248 36.8213C380.4 36.8213 381.528 36.46 382.632 35.7373V39.458ZM399.961 25L393.867 41.2012C392.402 45.0977 390.195 47.0459 387.246 47.0459C386.123 47.0459 385.2 46.9189 384.478 46.665V42.9736C385.093 43.335 385.762 43.5156 386.484 43.5156C387.676 43.5156 388.506 42.9541 388.975 41.8311L389.766 39.9707L383.672 25H388.799L391.597 34.126C391.772 34.6924 391.909 35.3613 392.007 36.1328H392.065C392.153 35.5664 392.314 34.9072 392.549 34.1553L395.376 25H399.961Z" fill="#1D9FDA"/>
<path d="M210.225 5.09282C213.035 5.09282 215.267 7.36825 215.267 10.05C215.267 12.7318 212.953 15.0072 210.225 15.0072C207.498 15.0072 205.184 12.7318 205.184 10.05C205.184 7.36825 207.415 5.09282 210.225 5.09282ZM210.225 4.60522C207.085 4.60522 204.605 7.04318 204.605 10.1313C204.605 13.2194 207.085 15.6573 210.225 15.6573C213.366 15.6573 215.845 13.2194 215.845 10.2125C215.845 7.20572 213.366 4.60522 210.225 4.60522Z" fill="#4B4D4D"/>
<path d="M207.787 12.8941V7.2868H210.267C210.763 7.2868 211.176 7.36807 211.424 7.44934C211.672 7.5306 211.92 7.69313 212.085 8.01819C212.25 8.34325 212.333 8.58705 212.333 8.91211C212.333 9.31844 212.25 9.6435 211.92 9.96856C211.672 10.2124 211.259 10.3749 210.68 10.5374C210.928 10.6187 211.011 10.6999 211.093 10.7812C211.341 11.025 211.506 11.1875 211.672 11.5126L212.664 12.9754H211.837L211.093 11.6751C210.845 11.3501 210.68 11.1063 210.515 10.9437C210.349 10.7812 210.267 10.6187 210.101 10.5374C210.019 10.4562 209.853 10.4562 209.771 10.3749C209.688 10.3749 209.523 10.3749 209.358 10.3749H208.531V12.8128L207.787 12.8941ZM208.531 9.80603H210.184C210.515 9.80603 210.763 9.72476 211.011 9.72476C211.259 9.6435 211.341 9.56223 211.424 9.3997C211.506 9.23717 211.589 9.07464 211.589 8.91211C211.589 8.66832 211.506 8.42452 211.341 8.26199C211.093 8.09946 210.845 8.01819 210.432 8.01819H208.614L208.531 9.80603Z" fill="#4B4D4D"/>
</svg>
