<svg width="603" height="50" viewBox="0 0 603 50" fill="none" xmlns="http://www.w3.org/2000/svg">
<path d="M15.9951 40.514C11.7325 40.514 8.32648 39.116 5.77714 36.3199C3.2415 33.5101 1.97368 29.7135 1.97368 24.9301C1.97368 20.1467 3.2415 16.3569 5.77714 13.5609C8.32648 10.7511 11.7325 9.34622 15.9951 9.34622C19.2708 9.34622 22.06 10.2303 24.3627 11.9984C26.6653 13.7664 27.9605 16.0965 28.2484 18.9885H24.1365C23.972 17.0833 23.1428 15.5688 21.6488 14.4449C20.1686 13.321 18.2977 12.759 16.0362 12.759C12.9797 12.759 10.5606 13.8144 8.77878 15.9252C6.99698 18.0222 6.10609 21.0238 6.10609 24.9301C6.10609 28.8226 6.99013 31.8243 8.75822 33.935C10.5263 36.0458 12.9249 37.1012 15.9539 37.1012C18.3114 37.1012 20.2166 36.5255 21.6694 35.3742C23.1223 34.2229 23.9446 32.5781 24.1365 30.44H28.2484C27.9605 33.6472 26.6996 36.128 24.4655 37.8824C22.2314 39.6368 19.4079 40.514 15.9951 40.514ZM37.1711 40H33.2854V9.8602H37.1711V40ZM51.7475 17.6933C54.8588 17.6933 57.3396 18.687 59.19 20.6743C61.054 22.6617 61.986 25.4715 61.986 29.1036C61.986 32.722 61.054 35.5318 59.19 37.5329C57.3396 39.5203 54.8588 40.514 51.7475 40.514C48.6499 40.514 46.1691 39.5203 44.3051 37.5329C42.4548 35.5318 41.5296 32.722 41.5296 29.1036C41.5296 25.4715 42.4548 22.6617 44.3051 20.6743C46.1691 18.687 48.6499 17.6933 51.7475 17.6933ZM51.7475 37.4712C53.5979 37.4712 55.0987 36.7722 56.25 35.3742C57.4013 33.9624 57.977 31.8723 57.977 29.1036C57.977 26.3213 57.4013 24.2311 56.25 22.8331C55.0987 21.4213 53.5979 20.7155 51.7475 20.7155C49.8972 20.7155 48.3964 21.4213 47.2451 22.8331C46.0938 24.2311 45.5181 26.3213 45.5181 29.1036C45.5181 31.8723 46.0938 33.9624 47.2451 35.3742C48.3964 36.7722 49.8972 37.4712 51.7475 37.4712ZM80.1604 37.2245C78.2278 39.4175 76.0554 40.514 73.6431 40.514C68.7226 40.514 66.2623 37.8276 66.2623 32.4548V18.1867H70.148V32.2903C70.148 34.0721 70.4633 35.3536 71.0938 36.1349C71.7242 36.9161 72.7659 37.3067 74.2188 37.3067C76.3843 37.3067 78.3649 36.1417 80.1604 33.8117V18.1867H84.0255V40H80.1604V37.2245ZM103.598 33.7294V23.3676C101.926 21.5995 100.014 20.7155 97.8618 20.7155C96.2034 20.7155 94.8739 21.435 93.8734 22.8742C92.8865 24.2996 92.3931 26.4309 92.3931 29.2681C92.3931 31.9545 92.8591 33.9967 93.7911 35.3947C94.7368 36.7791 96.0389 37.4712 97.6974 37.4712C99.8629 37.4712 101.83 36.224 103.598 33.7294ZM103.598 37.389C101.871 39.4723 99.7944 40.514 97.3684 40.514C94.5175 40.514 92.3109 39.4997 90.7484 37.4712C89.1859 35.4427 88.4046 32.7083 88.4046 29.2681C88.4046 25.7045 89.2749 22.8879 91.0156 20.8183C92.77 18.7349 94.9698 17.6933 97.6151 17.6933C99.9726 17.6933 101.967 18.4197 103.598 19.8725V9.8602H107.463V40H103.598V37.389Z" fill="#1D9FDA"/>
<path d="M129.317 27.6645L124.013 13.6842L118.956 27.6645H129.317ZM138.487 40H133.984L130.489 30.8306H117.866L114.535 40H110.321L121.896 9.8602H126.192L138.487 40ZM149.774 40.0411C148.924 40.2056 147.999 40.2878 146.998 40.2878C145.408 40.2878 144.243 40.0069 143.503 39.4449C142.763 38.8692 142.304 38.136 142.126 37.2451C141.948 36.3542 141.859 35.1412 141.859 33.6061V21.2294H139.165V18.1867H141.859V12.759H145.724V18.1867H149.26V21.2294H145.724V33.8117C145.724 35.3056 145.909 36.2582 146.279 36.6694C146.663 37.0669 147.183 37.2656 147.841 37.2656C148.513 37.2656 149.157 37.2108 149.774 37.1012V40.0411ZM156.908 40H153.022V9.8602H156.908V40ZM176.46 34.264V29.4326H173.808C168.188 29.4326 165.378 30.9608 165.378 34.0173C165.378 35.1275 165.789 35.9841 166.612 36.5872C167.434 37.1765 168.544 37.4712 169.942 37.4712C171.217 37.4712 172.451 37.1834 173.643 36.6077C174.836 36.0321 175.774 35.2508 176.46 34.264ZM176.46 37.759C174.486 39.5957 171.944 40.514 168.832 40.514C166.667 40.514 164.885 39.9315 163.487 38.7664C162.089 37.5877 161.39 36.0732 161.39 34.2229C161.39 29.1242 165.783 26.5748 174.568 26.5748H176.46C176.46 25.0123 176.377 23.8816 176.213 23.1826C176.049 22.4698 175.589 21.8805 174.836 21.4145C174.082 20.9485 172.882 20.7155 171.238 20.7155C167.784 20.7155 166.002 21.949 165.892 24.4161H162.027C162.315 19.9342 165.454 17.6933 171.443 17.6933C174.239 17.6933 176.419 18.2484 177.981 19.3586C179.544 20.4688 180.325 22.648 180.325 25.8964V40H176.46V37.759ZM193.873 40.514C187.911 40.514 184.793 38.1702 184.519 33.4827H188.405C188.432 36.1417 190.241 37.4712 193.832 37.4712C195.436 37.4712 196.656 37.1423 197.492 36.4844C198.342 35.8128 198.766 34.9767 198.766 33.9762C198.766 32.9893 198.355 32.2971 197.533 31.8997C196.711 31.4885 195.011 30.9608 192.434 30.3166C189.871 29.6724 187.993 28.9529 186.801 28.1579C185.622 27.3629 185.033 25.9649 185.033 23.9638C185.033 22.1546 185.766 20.6606 187.233 19.4819C188.713 18.2895 190.687 17.6933 193.154 17.6933C198.869 17.6933 201.789 19.7286 201.912 23.7993H198.047C197.91 21.7434 196.368 20.7155 193.421 20.7155C192.119 20.7155 191.036 20.9622 190.173 21.4556C189.323 21.949 188.898 22.6686 188.898 23.6143C188.898 24.4641 189.227 25.0809 189.885 25.4646C190.543 25.8347 192.187 26.3418 194.819 26.986C197.464 27.6165 199.424 28.3566 200.699 29.2064C201.987 30.0562 202.632 31.5228 202.632 33.6061C202.632 35.5935 201.837 37.2451 200.247 38.5609C198.67 39.8629 196.546 40.514 193.873 40.514Z" fill="#4B4D4D"/>
<path d="M233.892 18.9941V22.6562H232.134V36.3379H233.892V40H225.645V36.3379H227.402V22.6562H225.645V18.9941H233.892ZM250.957 40H246.343V31.665C246.343 29.3408 245.513 28.1787 243.853 28.1787C243.052 28.1787 242.393 28.4863 241.875 29.1016C241.357 29.7168 241.099 30.498 241.099 31.4453V40H236.47V25H241.099V27.373H241.157C242.261 25.5469 243.867 24.6338 245.977 24.6338C249.297 24.6338 250.957 26.6943 250.957 30.8154V40ZM264.419 21.3379C263.823 21.1035 263.252 20.9863 262.705 20.9863C261.221 20.9863 260.479 21.792 260.479 23.4033V25H263.906V28.4131H260.479V40H255.864V28.4131H253.345V25H255.864V23.1396C255.864 21.4307 256.421 20.0537 257.534 19.0088C258.647 17.9639 260.161 17.4414 262.075 17.4414C263.013 17.4414 263.794 17.5391 264.419 17.7344V21.3379ZM275.933 29.1748C275.376 28.8721 274.727 28.7207 273.984 28.7207C272.979 28.7207 272.192 29.0918 271.626 29.834C271.06 30.5664 270.776 31.5674 270.776 32.8369V40H266.147V25H270.776V27.7832H270.835C271.567 25.752 272.886 24.7363 274.79 24.7363C275.278 24.7363 275.659 24.7949 275.933 24.9121V29.1748ZM290.581 40H286.201V37.8467H286.143C285.137 39.5264 283.647 40.3662 281.675 40.3662C280.22 40.3662 279.072 39.9561 278.232 39.1357C277.402 38.3057 276.987 37.2021 276.987 35.8252C276.987 32.915 278.711 31.2354 282.158 30.7861L286.23 30.2441C286.23 28.6035 285.342 27.7832 283.564 27.7832C281.777 27.7832 280.078 28.3154 278.467 29.3799V25.8936C279.111 25.5615 279.99 25.2686 281.104 25.0146C282.227 24.7607 283.247 24.6338 284.165 24.6338C288.442 24.6338 290.581 26.7676 290.581 31.0352V40ZM286.23 33.9062V32.8955L283.506 33.2471C282.002 33.4424 281.25 34.1211 281.25 35.2832C281.25 35.8105 281.431 36.2451 281.792 36.5869C282.163 36.9189 282.661 37.085 283.286 37.085C284.155 37.085 284.863 36.7871 285.41 36.1914C285.957 35.5859 286.23 34.8242 286.23 33.9062ZM293.262 39.6045V35.8545C294.023 36.3135 294.78 36.6553 295.532 36.8799C296.294 37.1045 297.012 37.2168 297.686 37.2168C298.506 37.2168 299.15 37.1045 299.619 36.8799C300.098 36.6553 300.337 36.3135 300.337 35.8545C300.337 35.5615 300.229 35.3174 300.015 35.1221C299.8 34.9268 299.521 34.7559 299.18 34.6094C298.848 34.4629 298.481 34.3311 298.081 34.2139C297.681 34.0967 297.295 33.9648 296.924 33.8184C296.328 33.5938 295.801 33.3545 295.342 33.1006C294.893 32.8369 294.512 32.5342 294.199 32.1924C293.896 31.8506 293.662 31.4551 293.496 31.0059C293.34 30.5566 293.262 30.0244 293.262 29.4092C293.262 28.5693 293.442 27.8467 293.804 27.2412C294.175 26.6357 294.663 26.1426 295.269 25.7617C295.884 25.3711 296.582 25.0879 297.363 24.9121C298.154 24.7266 298.975 24.6338 299.824 24.6338C300.488 24.6338 301.162 24.6875 301.846 24.7949C302.529 24.8926 303.203 25.0391 303.867 25.2344V28.8086C303.281 28.4668 302.651 28.2129 301.978 28.0469C301.313 27.8711 300.659 27.7832 300.015 27.7832C299.712 27.7832 299.424 27.8125 299.15 27.8711C298.887 27.9199 298.652 27.998 298.447 28.1055C298.242 28.2031 298.081 28.335 297.964 28.501C297.847 28.6572 297.788 28.8379 297.788 29.043C297.788 29.3164 297.876 29.5508 298.052 29.7461C298.228 29.9414 298.457 30.1123 298.74 30.2588C299.023 30.3955 299.336 30.5225 299.678 30.6396C300.029 30.7471 300.376 30.8594 300.718 30.9766C301.333 31.1914 301.89 31.4258 302.388 31.6797C302.886 31.9336 303.311 32.2314 303.662 32.5732C304.023 32.915 304.297 33.3154 304.482 33.7744C304.678 34.2334 304.775 34.7803 304.775 35.415C304.775 36.3037 304.58 37.0654 304.189 37.7002C303.809 38.3252 303.296 38.8379 302.651 39.2383C302.017 39.6289 301.279 39.9121 300.439 40.0879C299.609 40.2734 298.745 40.3662 297.847 40.3662C296.196 40.3662 294.668 40.1123 293.262 39.6045ZM316.523 39.8242C315.84 40.1855 314.81 40.3662 313.433 40.3662C310.171 40.3662 308.54 38.6719 308.54 35.2832V28.4131H306.108V25H308.54V21.7627L313.154 20.4443V25H316.523V28.4131H313.154V34.4775C313.154 36.04 313.774 36.8213 315.015 36.8213C315.503 36.8213 316.006 36.6797 316.523 36.3965V39.8242ZM328.931 29.1748C328.374 28.8721 327.725 28.7207 326.982 28.7207C325.977 28.7207 325.19 29.0918 324.624 29.834C324.058 30.5664 323.774 31.5674 323.774 32.8369V40H319.146V25H323.774V27.7832H323.833C324.565 25.752 325.884 24.7363 327.788 24.7363C328.276 24.7363 328.657 24.7949 328.931 24.9121V29.1748ZM345.352 40H340.737V37.7148H340.664C339.521 39.4824 337.993 40.3662 336.079 40.3662C332.603 40.3662 330.864 38.2617 330.864 34.0527V25H335.479V33.6426C335.479 35.7617 336.318 36.8213 337.998 36.8213C338.828 36.8213 339.492 36.5332 339.99 35.957C340.488 35.3711 340.737 34.5801 340.737 33.584V25H345.352V40ZM360.63 39.458C359.585 40.0635 358.076 40.3662 356.104 40.3662C353.799 40.3662 351.934 39.668 350.508 38.2715C349.082 36.875 348.369 35.0732 348.369 32.8662C348.369 30.3174 349.131 28.3105 350.654 26.8457C352.188 25.3711 354.233 24.6338 356.792 24.6338C358.56 24.6338 359.839 24.8682 360.63 25.3369V29.2627C359.663 28.54 358.584 28.1787 357.393 28.1787C356.064 28.1787 355.01 28.5693 354.229 29.3506C353.457 30.1221 353.071 31.1914 353.071 32.5586C353.071 33.8867 353.442 34.9316 354.185 35.6934C354.927 36.4453 355.947 36.8213 357.246 36.8213C358.398 36.8213 359.526 36.46 360.63 35.7373V39.458ZM372.744 39.8242C372.061 40.1855 371.03 40.3662 369.653 40.3662C366.392 40.3662 364.761 38.6719 364.761 35.2832V28.4131H362.329V25H364.761V21.7627L369.375 20.4443V25H372.744V28.4131H369.375V34.4775C369.375 36.04 369.995 36.8213 371.235 36.8213C371.724 36.8213 372.227 36.6797 372.744 36.3965V39.8242ZM389.619 40H385.005V37.7148H384.932C383.789 39.4824 382.261 40.3662 380.347 40.3662C376.87 40.3662 375.132 38.2617 375.132 34.0527V25H379.746V33.6426C379.746 35.7617 380.586 36.8213 382.266 36.8213C383.096 36.8213 383.76 36.5332 384.258 35.957C384.756 35.3711 385.005 34.5801 385.005 33.584V25H389.619V40ZM403.315 29.1748C402.759 28.8721 402.109 28.7207 401.367 28.7207C400.361 28.7207 399.575 29.0918 399.009 29.834C398.442 30.5664 398.159 31.5674 398.159 32.8369V40H393.53V25H398.159V27.7832H398.218C398.95 25.752 400.269 24.7363 402.173 24.7363C402.661 24.7363 403.042 24.7949 403.315 24.9121V29.1748ZM418.96 33.8184H409.175C409.331 35.9961 410.703 37.085 413.291 37.085C414.941 37.085 416.392 36.6943 417.642 35.9131V39.2529C416.255 39.9951 414.453 40.3662 412.236 40.3662C409.814 40.3662 407.935 39.6973 406.597 38.3594C405.259 37.0117 404.59 35.1367 404.59 32.7344C404.59 30.2441 405.312 28.2715 406.758 26.8164C408.203 25.3613 409.98 24.6338 412.09 24.6338C414.277 24.6338 415.967 25.2832 417.158 26.582C418.359 27.8809 418.96 29.6436 418.96 31.8701V33.8184ZM414.668 30.9766C414.668 28.8281 413.799 27.7539 412.061 27.7539C411.318 27.7539 410.674 28.0615 410.127 28.6768C409.59 29.292 409.263 30.0586 409.146 30.9766H414.668ZM448.931 40H443.774L442.28 35.3271H434.81L433.33 40H428.203L435.85 18.9941H441.46L448.931 40ZM441.196 31.6943L438.94 24.6338C438.774 24.1064 438.657 23.4766 438.589 22.7441H438.472C438.423 23.3594 438.301 23.9697 438.105 24.5752L435.82 31.6943H441.196ZM450.117 39.6045V35.8545C450.879 36.3135 451.636 36.6553 452.388 36.8799C453.149 37.1045 453.867 37.2168 454.541 37.2168C455.361 37.2168 456.006 37.1045 456.475 36.8799C456.953 36.6553 457.192 36.3135 457.192 35.8545C457.192 35.5615 457.085 35.3174 456.87 35.1221C456.655 34.9268 456.377 34.7559 456.035 34.6094C455.703 34.4629 455.337 34.3311 454.937 34.2139C454.536 34.0967 454.15 33.9648 453.779 33.8184C453.184 33.5938 452.656 33.3545 452.197 33.1006C451.748 32.8369 451.367 32.5342 451.055 32.1924C450.752 31.8506 450.518 31.4551 450.352 31.0059C450.195 30.5566 450.117 30.0244 450.117 29.4092C450.117 28.5693 450.298 27.8467 450.659 27.2412C451.03 26.6357 451.519 26.1426 452.124 25.7617C452.739 25.3711 453.438 25.0879 454.219 24.9121C455.01 24.7266 455.83 24.6338 456.68 24.6338C457.344 24.6338 458.018 24.6875 458.701 24.7949C459.385 24.8926 460.059 25.0391 460.723 25.2344V28.8086C460.137 28.4668 459.507 28.2129 458.833 28.0469C458.169 27.8711 457.515 27.7832 456.87 27.7832C456.567 27.7832 456.279 27.8125 456.006 27.8711C455.742 27.9199 455.508 27.998 455.303 28.1055C455.098 28.2031 454.937 28.335 454.819 28.501C454.702 28.6572 454.644 28.8379 454.644 29.043C454.644 29.3164 454.731 29.5508 454.907 29.7461C455.083 29.9414 455.312 30.1123 455.596 30.2588C455.879 30.3955 456.191 30.5225 456.533 30.6396C456.885 30.7471 457.231 30.8594 457.573 30.9766C458.188 31.1914 458.745 31.4258 459.243 31.6797C459.741 31.9336 460.166 32.2314 460.518 32.5732C460.879 32.915 461.152 33.3154 461.338 33.7744C461.533 34.2334 461.631 34.7803 461.631 35.415C461.631 36.3037 461.436 37.0654 461.045 37.7002C460.664 38.3252 460.151 38.8379 459.507 39.2383C458.872 39.6289 458.135 39.9121 457.295 40.0879C456.465 40.2734 455.601 40.3662 454.702 40.3662C453.052 40.3662 451.523 40.1123 450.117 39.6045ZM463.33 39.6045V35.8545C464.092 36.3135 464.849 36.6553 465.601 36.8799C466.362 37.1045 467.08 37.2168 467.754 37.2168C468.574 37.2168 469.219 37.1045 469.688 36.8799C470.166 36.6553 470.405 36.3135 470.405 35.8545C470.405 35.5615 470.298 35.3174 470.083 35.1221C469.868 34.9268 469.59 34.7559 469.248 34.6094C468.916 34.4629 468.55 34.3311 468.149 34.2139C467.749 34.0967 467.363 33.9648 466.992 33.8184C466.396 33.5938 465.869 33.3545 465.41 33.1006C464.961 32.8369 464.58 32.5342 464.268 32.1924C463.965 31.8506 463.73 31.4551 463.564 31.0059C463.408 30.5566 463.33 30.0244 463.33 29.4092C463.33 28.5693 463.511 27.8467 463.872 27.2412C464.243 26.6357 464.731 26.1426 465.337 25.7617C465.952 25.3711 466.65 25.0879 467.432 24.9121C468.223 24.7266 469.043 24.6338 469.893 24.6338C470.557 24.6338 471.23 24.6875 471.914 24.7949C472.598 24.8926 473.271 25.0391 473.936 25.2344V28.8086C473.35 28.4668 472.72 28.2129 472.046 28.0469C471.382 27.8711 470.728 27.7832 470.083 27.7832C469.78 27.7832 469.492 27.8125 469.219 27.8711C468.955 27.9199 468.721 27.998 468.516 28.1055C468.311 28.2031 468.149 28.335 468.032 28.501C467.915 28.6572 467.856 28.8379 467.856 29.043C467.856 29.3164 467.944 29.5508 468.12 29.7461C468.296 29.9414 468.525 30.1123 468.809 30.2588C469.092 30.3955 469.404 30.5225 469.746 30.6396C470.098 30.7471 470.444 30.8594 470.786 30.9766C471.401 31.1914 471.958 31.4258 472.456 31.6797C472.954 31.9336 473.379 32.2314 473.73 32.5732C474.092 32.915 474.365 33.3154 474.551 33.7744C474.746 34.2334 474.844 34.7803 474.844 35.415C474.844 36.3037 474.648 37.0654 474.258 37.7002C473.877 38.3252 473.364 38.8379 472.72 39.2383C472.085 39.6289 471.348 39.9121 470.508 40.0879C469.678 40.2734 468.813 40.3662 467.915 40.3662C466.265 40.3662 464.736 40.1123 463.33 39.6045ZM491.001 33.8184H481.216C481.372 35.9961 482.744 37.085 485.332 37.085C486.982 37.085 488.433 36.6943 489.683 35.9131V39.2529C488.296 39.9951 486.494 40.3662 484.277 40.3662C481.855 40.3662 479.976 39.6973 478.638 38.3594C477.3 37.0117 476.631 35.1367 476.631 32.7344C476.631 30.2441 477.354 28.2715 478.799 26.8164C480.244 25.3613 482.021 24.6338 484.131 24.6338C486.318 24.6338 488.008 25.2832 489.199 26.582C490.4 27.8809 491.001 29.6436 491.001 31.8701V33.8184ZM486.709 30.9766C486.709 28.8281 485.84 27.7539 484.102 27.7539C483.359 27.7539 482.715 28.0615 482.168 28.6768C481.631 29.292 481.304 30.0586 481.187 30.9766H486.709ZM492.773 39.6045V35.8545C493.535 36.3135 494.292 36.6553 495.044 36.8799C495.806 37.1045 496.523 37.2168 497.197 37.2168C498.018 37.2168 498.662 37.1045 499.131 36.8799C499.609 36.6553 499.849 36.3135 499.849 35.8545C499.849 35.5615 499.741 35.3174 499.526 35.1221C499.312 34.9268 499.033 34.7559 498.691 34.6094C498.359 34.4629 497.993 34.3311 497.593 34.2139C497.192 34.0967 496.807 33.9648 496.436 33.8184C495.84 33.5938 495.312 33.3545 494.854 33.1006C494.404 32.8369 494.023 32.5342 493.711 32.1924C493.408 31.8506 493.174 31.4551 493.008 31.0059C492.852 30.5566 492.773 30.0244 492.773 29.4092C492.773 28.5693 492.954 27.8467 493.315 27.2412C493.687 26.6357 494.175 26.1426 494.78 25.7617C495.396 25.3711 496.094 25.0879 496.875 24.9121C497.666 24.7266 498.486 24.6338 499.336 24.6338C500 24.6338 500.674 24.6875 501.357 24.7949C502.041 24.8926 502.715 25.0391 503.379 25.2344V28.8086C502.793 28.4668 502.163 28.2129 501.489 28.0469C500.825 27.8711 500.171 27.7832 499.526 27.7832C499.224 27.7832 498.936 27.8125 498.662 27.8711C498.398 27.9199 498.164 27.998 497.959 28.1055C497.754 28.2031 497.593 28.335 497.476 28.501C497.358 28.6572 497.3 28.8379 497.3 29.043C497.3 29.3164 497.388 29.5508 497.563 29.7461C497.739 29.9414 497.969 30.1123 498.252 30.2588C498.535 30.3955 498.848 30.5225 499.189 30.6396C499.541 30.7471 499.888 30.8594 500.229 30.9766C500.845 31.1914 501.401 31.4258 501.899 31.6797C502.397 31.9336 502.822 32.2314 503.174 32.5732C503.535 32.915 503.809 33.3154 503.994 33.7744C504.189 34.2334 504.287 34.7803 504.287 35.415C504.287 36.3037 504.092 37.0654 503.701 37.7002C503.32 38.3252 502.808 38.8379 502.163 39.2383C501.528 39.6289 500.791 39.9121 499.951 40.0879C499.121 40.2734 498.257 40.3662 497.358 40.3662C495.708 40.3662 494.18 40.1123 492.773 39.6045ZM505.986 39.6045V35.8545C506.748 36.3135 507.505 36.6553 508.257 36.8799C509.019 37.1045 509.736 37.2168 510.41 37.2168C511.23 37.2168 511.875 37.1045 512.344 36.8799C512.822 36.6553 513.062 36.3135 513.062 35.8545C513.062 35.5615 512.954 35.3174 512.739 35.1221C512.524 34.9268 512.246 34.7559 511.904 34.6094C511.572 34.4629 511.206 34.3311 510.806 34.2139C510.405 34.0967 510.02 33.9648 509.648 33.8184C509.053 33.5938 508.525 33.3545 508.066 33.1006C507.617 32.8369 507.236 32.5342 506.924 32.1924C506.621 31.8506 506.387 31.4551 506.221 31.0059C506.064 30.5566 505.986 30.0244 505.986 29.4092C505.986 28.5693 506.167 27.8467 506.528 27.2412C506.899 26.6357 507.388 26.1426 507.993 25.7617C508.608 25.3711 509.307 25.0879 510.088 24.9121C510.879 24.7266 511.699 24.6338 512.549 24.6338C513.213 24.6338 513.887 24.6875 514.57 24.7949C515.254 24.8926 515.928 25.0391 516.592 25.2344V28.8086C516.006 28.4668 515.376 28.2129 514.702 28.0469C514.038 27.8711 513.384 27.7832 512.739 27.7832C512.437 27.7832 512.148 27.8125 511.875 27.8711C511.611 27.9199 511.377 27.998 511.172 28.1055C510.967 28.2031 510.806 28.335 510.688 28.501C510.571 28.6572 510.513 28.8379 510.513 29.043C510.513 29.3164 510.601 29.5508 510.776 29.7461C510.952 29.9414 511.182 30.1123 511.465 30.2588C511.748 30.3955 512.061 30.5225 512.402 30.6396C512.754 30.7471 513.101 30.8594 513.442 30.9766C514.058 31.1914 514.614 31.4258 515.112 31.6797C515.61 31.9336 516.035 32.2314 516.387 32.5732C516.748 32.915 517.021 33.3154 517.207 33.7744C517.402 34.2334 517.5 34.7803 517.5 35.415C517.5 36.3037 517.305 37.0654 516.914 37.7002C516.533 38.3252 516.021 38.8379 515.376 39.2383C514.741 39.6289 514.004 39.9121 513.164 40.0879C512.334 40.2734 511.47 40.3662 510.571 40.3662C508.921 40.3662 507.393 40.1123 505.986 39.6045ZM543.999 40H539.385V31.4453C539.385 29.2676 538.584 28.1787 536.982 28.1787C536.221 28.1787 535.601 28.5059 535.122 29.1602C534.644 29.8145 534.404 30.6299 534.404 31.6064V40H529.775V31.3574C529.775 29.2383 528.989 28.1787 527.417 28.1787C526.626 28.1787 525.991 28.4912 525.513 29.1162C525.044 29.7412 524.81 30.5908 524.81 31.665V40H520.181V25H524.81V27.3438H524.868C525.347 26.543 526.016 25.8936 526.875 25.3955C527.744 24.8877 528.691 24.6338 529.717 24.6338C531.836 24.6338 533.286 25.5664 534.067 27.4316C535.21 25.5664 536.89 24.6338 539.106 24.6338C542.368 24.6338 543.999 26.6455 543.999 30.6689V40ZM561.138 33.8184H551.353C551.509 35.9961 552.881 37.085 555.469 37.085C557.119 37.085 558.569 36.6943 559.819 35.9131V39.2529C558.433 39.9951 556.631 40.3662 554.414 40.3662C551.992 40.3662 550.112 39.6973 548.774 38.3594C547.437 37.0117 546.768 35.1367 546.768 32.7344C546.768 30.2441 547.49 28.2715 548.936 26.8164C550.381 25.3613 552.158 24.6338 554.268 24.6338C556.455 24.6338 558.145 25.2832 559.336 26.582C560.537 27.8809 561.138 29.6436 561.138 31.8701V33.8184ZM556.846 30.9766C556.846 28.8281 555.977 27.7539 554.238 27.7539C553.496 27.7539 552.852 28.0615 552.305 28.6768C551.768 29.292 551.44 30.0586 551.323 30.9766H556.846ZM578.379 40H573.765V31.665C573.765 29.3408 572.935 28.1787 571.274 28.1787C570.474 28.1787 569.814 28.4863 569.297 29.1016C568.779 29.7168 568.521 30.498 568.521 31.4453V40H563.892V25H568.521V27.373H568.579C569.683 25.5469 571.289 24.6338 573.398 24.6338C576.719 24.6338 578.379 26.6943 578.379 30.8154V40ZM591.123 39.8242C590.439 40.1855 589.409 40.3662 588.032 40.3662C584.771 40.3662 583.14 38.6719 583.14 35.2832V28.4131H580.708V25H583.14V21.7627L587.754 20.4443V25H591.123V28.4131H587.754V34.4775C587.754 36.04 588.374 36.8213 589.614 36.8213C590.103 36.8213 590.605 36.6797 591.123 36.3965V39.8242Z" fill="#1D9FDA"/>
<path d="M210.225 5.09282C213.035 5.09282 215.267 7.36825 215.267 10.05C215.267 12.7318 212.953 15.0072 210.225 15.0072C207.498 15.0072 205.184 12.7318 205.184 10.05C205.184 7.36825 207.415 5.09282 210.225 5.09282ZM210.225 4.60522C207.085 4.60522 204.605 7.04318 204.605 10.1313C204.605 13.2194 207.085 15.6573 210.225 15.6573C213.366 15.6573 215.845 13.2194 215.845 10.2125C215.845 7.20572 213.366 4.60522 210.225 4.60522Z" fill="#4B4D4D"/>
<path d="M207.787 12.8941V7.2868H210.267C210.763 7.2868 211.176 7.36806 211.424 7.44933C211.672 7.53059 211.92 7.69312 212.085 8.01818C212.25 8.34325 212.333 8.58704 212.333 8.9121C212.333 9.31843 212.25 9.64349 211.92 9.96855C211.672 10.2124 211.259 10.3749 210.68 10.5374C210.928 10.6187 211.011 10.6999 211.093 10.7812C211.341 11.025 211.506 11.1875 211.672 11.5126L212.664 12.9754H211.837L211.093 11.6751C210.845 11.3501 210.68 11.1063 210.515 10.9437C210.349 10.7812 210.267 10.6187 210.101 10.5374C210.019 10.4561 209.853 10.4561 209.771 10.3749C209.688 10.3749 209.523 10.3749 209.358 10.3749H208.531V12.8128L207.787 12.8941ZM208.531 9.80602H210.184C210.515 9.80602 210.763 9.72476 211.011 9.72476C211.259 9.64349 211.341 9.56223 211.424 9.3997C211.506 9.23717 211.589 9.07463 211.589 8.9121C211.589 8.66831 211.506 8.42451 211.341 8.26198C211.093 8.09945 210.845 8.01818 210.432 8.01818H208.614L208.531 9.80602Z" fill="#4B4D4D"/>
</svg>
