<svg width="431" height="50" viewBox="0 0 431 50" fill="none" xmlns="http://www.w3.org/2000/svg">
<path d="M15.9951 40.514C11.7325 40.514 8.32648 39.116 5.77714 36.3199C3.2415 33.5101 1.97368 29.7135 1.97368 24.9301C1.97368 20.1467 3.2415 16.3569 5.77714 13.5609C8.32648 10.7511 11.7325 9.34622 15.9951 9.34622C19.2708 9.34622 22.06 10.2303 24.3627 11.9984C26.6653 13.7664 27.9605 16.0965 28.2484 18.9885H24.1365C23.972 17.0833 23.1428 15.5688 21.6488 14.4449C20.1686 13.321 18.2977 12.759 16.0362 12.759C12.9797 12.759 10.5606 13.8144 8.77878 15.9252C6.99698 18.0222 6.10609 21.0238 6.10609 24.9301C6.10609 28.8226 6.99013 31.8243 8.75822 33.935C10.5263 36.0458 12.9249 37.1012 15.9539 37.1012C18.3114 37.1012 20.2166 36.5255 21.6694 35.3742C23.1223 34.2229 23.9446 32.5781 24.1365 30.44H28.2484C27.9605 33.6472 26.6996 36.128 24.4655 37.8824C22.2314 39.6368 19.4079 40.514 15.9951 40.514ZM37.1711 40H33.2854V9.8602H37.1711V40ZM51.7475 17.6933C54.8588 17.6933 57.3396 18.687 59.19 20.6743C61.054 22.6617 61.986 25.4715 61.986 29.1036C61.986 32.722 61.054 35.5318 59.19 37.5329C57.3396 39.5203 54.8588 40.514 51.7475 40.514C48.6499 40.514 46.1691 39.5203 44.3051 37.5329C42.4548 35.5318 41.5296 32.722 41.5296 29.1036C41.5296 25.4715 42.4548 22.6617 44.3051 20.6743C46.1691 18.687 48.6499 17.6933 51.7475 17.6933ZM51.7475 37.4712C53.5979 37.4712 55.0987 36.7722 56.25 35.3742C57.4013 33.9624 57.977 31.8723 57.977 29.1036C57.977 26.3213 57.4013 24.2311 56.25 22.8331C55.0987 21.4213 53.5979 20.7155 51.7475 20.7155C49.8972 20.7155 48.3964 21.4213 47.2451 22.8331C46.0938 24.2311 45.5181 26.3213 45.5181 29.1036C45.5181 31.8723 46.0938 33.9624 47.2451 35.3742C48.3964 36.7722 49.8972 37.4712 51.7475 37.4712ZM80.1604 37.2245C78.2278 39.4175 76.0554 40.514 73.6431 40.514C68.7226 40.514 66.2623 37.8276 66.2623 32.4548V18.1867H70.148V32.2903C70.148 34.0721 70.4633 35.3536 71.0938 36.1349C71.7242 36.9161 72.7659 37.3067 74.2188 37.3067C76.3843 37.3067 78.3649 36.1417 80.1604 33.8117V18.1867H84.0255V40H80.1604V37.2245ZM103.598 33.7294V23.3676C101.926 21.5995 100.014 20.7155 97.8618 20.7155C96.2034 20.7155 94.8739 21.435 93.8734 22.8742C92.8865 24.2996 92.3931 26.4309 92.3931 29.2681C92.3931 31.9545 92.8591 33.9967 93.7911 35.3947C94.7368 36.7791 96.0389 37.4712 97.6974 37.4712C99.8629 37.4712 101.83 36.224 103.598 33.7294ZM103.598 37.389C101.871 39.4723 99.7944 40.514 97.3684 40.514C94.5175 40.514 92.3109 39.4997 90.7484 37.4712C89.1859 35.4427 88.4046 32.7083 88.4046 29.2681C88.4046 25.7045 89.2749 22.8879 91.0156 20.8183C92.77 18.7349 94.9698 17.6933 97.6151 17.6933C99.9726 17.6933 101.967 18.4197 103.598 19.8725V9.8602H107.463V40H103.598V37.389Z" fill="#1D9FDA"/>
<path d="M129.317 27.6645L124.013 13.6842L118.956 27.6645H129.317ZM138.487 40H133.984L130.489 30.8306H117.866L114.535 40H110.321L121.896 9.8602H126.192L138.487 40ZM149.774 40.0411C148.924 40.2056 147.999 40.2878 146.998 40.2878C145.408 40.2878 144.243 40.0069 143.503 39.4449C142.763 38.8692 142.304 38.136 142.126 37.2451C141.948 36.3542 141.859 35.1412 141.859 33.6061V21.2294H139.165V18.1867H141.859V12.759H145.724V18.1867H149.26V21.2294H145.724V33.8117C145.724 35.3056 145.909 36.2582 146.279 36.6694C146.663 37.0669 147.183 37.2656 147.841 37.2656C148.513 37.2656 149.157 37.2108 149.774 37.1012V40.0411ZM156.908 40H153.022V9.8602H156.908V40ZM176.46 34.264V29.4326H173.808C168.188 29.4326 165.378 30.9608 165.378 34.0173C165.378 35.1275 165.789 35.9841 166.612 36.5872C167.434 37.1765 168.544 37.4712 169.942 37.4712C171.217 37.4712 172.451 37.1834 173.643 36.6077C174.836 36.0321 175.774 35.2508 176.46 34.264ZM176.46 37.759C174.486 39.5957 171.944 40.514 168.832 40.514C166.667 40.514 164.885 39.9315 163.487 38.7664C162.089 37.5877 161.39 36.0732 161.39 34.2229C161.39 29.1242 165.783 26.5748 174.568 26.5748H176.46C176.46 25.0123 176.377 23.8816 176.213 23.1826C176.049 22.4698 175.589 21.8805 174.836 21.4145C174.082 20.9485 172.882 20.7155 171.238 20.7155C167.784 20.7155 166.002 21.949 165.892 24.4161H162.027C162.315 19.9342 165.454 17.6933 171.443 17.6933C174.239 17.6933 176.419 18.2484 177.981 19.3586C179.544 20.4688 180.325 22.648 180.325 25.8964V40H176.46V37.759ZM193.873 40.514C187.911 40.514 184.793 38.1702 184.519 33.4827H188.405C188.432 36.1417 190.241 37.4712 193.832 37.4712C195.436 37.4712 196.656 37.1423 197.492 36.4844C198.342 35.8128 198.766 34.9767 198.766 33.9762C198.766 32.9893 198.355 32.2971 197.533 31.8997C196.711 31.4885 195.011 30.9608 192.434 30.3166C189.871 29.6724 187.993 28.9529 186.801 28.1579C185.622 27.3629 185.033 25.9649 185.033 23.9638C185.033 22.1546 185.766 20.6606 187.233 19.4819C188.713 18.2895 190.687 17.6933 193.154 17.6933C198.869 17.6933 201.789 19.7286 201.912 23.7993H198.047C197.91 21.7434 196.368 20.7155 193.421 20.7155C192.119 20.7155 191.036 20.9622 190.173 21.4556C189.323 21.949 188.898 22.6686 188.898 23.6143C188.898 24.4641 189.227 25.0809 189.885 25.4646C190.543 25.8347 192.187 26.3418 194.819 26.986C197.464 27.6165 199.424 28.3566 200.699 29.2064C201.987 30.0562 202.632 31.5228 202.632 33.6061C202.632 35.5935 201.837 37.2451 200.247 38.5609C198.67 39.8629 196.546 40.514 193.873 40.514Z" fill="#4B4D4D"/>
<path d="M239.912 40H227.402V18.9941H232.134V36.1621H239.912V40ZM254.78 40H250.4V37.8467H250.342C249.336 39.5264 247.847 40.3662 245.874 40.3662C244.419 40.3662 243.271 39.9561 242.432 39.1357C241.602 38.3057 241.187 37.2021 241.187 35.8252C241.187 32.915 242.91 31.2354 246.357 30.7861L250.43 30.2441C250.43 28.6035 249.541 27.7832 247.764 27.7832C245.977 27.7832 244.277 28.3154 242.666 29.3799V25.8936C243.311 25.5615 244.189 25.2686 245.303 25.0146C246.426 24.7607 247.446 24.6338 248.364 24.6338C252.642 24.6338 254.78 26.7676 254.78 31.0352V40ZM250.43 33.9062V32.8955L247.705 33.2471C246.201 33.4424 245.449 34.1211 245.449 35.2832C245.449 35.8105 245.63 36.2451 245.991 36.5869C246.362 36.9189 246.86 37.085 247.485 37.085C248.354 37.085 249.062 36.7871 249.609 36.1914C250.156 35.5859 250.43 34.8242 250.43 33.9062ZM272.93 40H268.315V31.665C268.315 29.3408 267.485 28.1787 265.825 28.1787C265.024 28.1787 264.365 28.4863 263.848 29.1016C263.33 29.7168 263.071 30.498 263.071 31.4453V40H258.442V25H263.071V27.373H263.13C264.233 25.5469 265.84 24.6338 267.949 24.6338C271.27 24.6338 272.93 26.6943 272.93 30.8154V40ZM291.284 40H286.655V37.9346H286.597C285.542 39.5557 283.994 40.3662 281.953 40.3662C280.078 40.3662 278.569 39.707 277.427 38.3887C276.284 37.0605 275.713 35.21 275.713 32.8369C275.713 30.3564 276.343 28.3691 277.603 26.875C278.862 25.3809 280.513 24.6338 282.554 24.6338C284.487 24.6338 285.835 25.3271 286.597 26.7139H286.655V17.793H291.284V40ZM286.743 32.7051V31.5771C286.743 30.6006 286.46 29.79 285.894 29.1455C285.327 28.501 284.59 28.1787 283.682 28.1787C282.656 28.1787 281.855 28.584 281.279 29.3945C280.703 30.1953 280.415 31.2988 280.415 32.7051C280.415 34.0234 280.693 35.0391 281.25 35.752C281.807 36.4648 282.578 36.8213 283.564 36.8213C284.502 36.8213 285.264 36.4453 285.85 35.6934C286.445 34.9414 286.743 33.9453 286.743 32.7051ZM297.524 22.627C296.743 22.627 296.104 22.3975 295.605 21.9385C295.107 21.4697 294.858 20.8984 294.858 20.2246C294.858 19.5312 295.107 18.9648 295.605 18.5254C296.104 18.0859 296.743 17.8662 297.524 17.8662C298.315 17.8662 298.955 18.0859 299.443 18.5254C299.941 18.9648 300.19 19.5312 300.19 20.2246C300.19 20.9277 299.941 21.5039 299.443 21.9531C298.955 22.4023 298.315 22.627 297.524 22.627ZM299.81 40H295.181V25H299.81V40ZM318.193 40H313.579V31.665C313.579 29.3408 312.749 28.1787 311.089 28.1787C310.288 28.1787 309.629 28.4863 309.111 29.1016C308.594 29.7168 308.335 30.498 308.335 31.4453V40H303.706V25H308.335V27.373H308.394C309.497 25.5469 311.104 24.6338 313.213 24.6338C316.533 24.6338 318.193 26.6943 318.193 30.8154V40ZM336.577 38.2861C336.577 41.0693 335.771 43.2227 334.16 44.7461C332.549 46.2793 330.215 47.0459 327.158 47.0459C325.137 47.0459 323.535 46.7578 322.354 46.1816V42.2852C323.896 43.1836 325.454 43.6328 327.026 43.6328C328.589 43.6328 329.8 43.2178 330.659 42.3877C331.519 41.5674 331.948 40.4492 331.948 39.0332V37.8467H331.89C330.835 39.5264 329.277 40.3662 327.217 40.3662C325.303 40.3662 323.784 39.6924 322.661 38.3447C321.538 36.9971 320.977 35.1904 320.977 32.9248C320.977 30.3857 321.602 28.3691 322.852 26.875C324.102 25.3809 325.747 24.6338 327.788 24.6338C329.614 24.6338 330.981 25.3369 331.89 26.7432H331.948V25H336.577V38.2861ZM332.007 32.793V31.6064C332.007 30.6592 331.724 29.8535 331.157 29.1895C330.601 28.5156 329.873 28.1787 328.975 28.1787C327.949 28.1787 327.144 28.5791 326.558 29.3799C325.972 30.1807 325.679 31.3086 325.679 32.7637C325.679 34.0137 325.957 35.0049 326.514 35.7373C327.07 36.46 327.832 36.8213 328.799 36.8213C329.756 36.8213 330.527 36.4551 331.113 35.7227C331.709 34.9805 332.007 34.0039 332.007 32.793ZM364.307 40H347.388V37.2754L358.154 22.8467H348.164V18.9941H364.277V21.6455L353.745 36.1621H364.307V40ZM374.106 40.3662C371.606 40.3662 369.639 39.668 368.203 38.2715C366.777 36.8652 366.064 34.9609 366.064 32.5586C366.064 30.0781 366.807 28.1396 368.291 26.7432C369.775 25.3369 371.782 24.6338 374.312 24.6338C376.802 24.6338 378.755 25.3369 380.171 26.7432C381.587 28.1396 382.295 29.9902 382.295 32.2949C382.295 34.7852 381.562 36.7529 380.098 38.1982C378.643 39.6436 376.646 40.3662 374.106 40.3662ZM374.224 28.1787C373.13 28.1787 372.28 28.5547 371.675 29.3066C371.069 30.0586 370.767 31.123 370.767 32.5C370.767 35.3809 371.929 36.8213 374.253 36.8213C376.47 36.8213 377.578 35.3418 377.578 32.3828C377.578 29.5801 376.46 28.1787 374.224 28.1787ZM399.785 40H395.171V31.665C395.171 29.3408 394.341 28.1787 392.681 28.1787C391.88 28.1787 391.221 28.4863 390.703 29.1016C390.186 29.7168 389.927 30.498 389.927 31.4453V40H385.298V25H389.927V27.373H389.985C391.089 25.5469 392.695 24.6338 394.805 24.6338C398.125 24.6338 399.785 26.6943 399.785 30.8154V40ZM416.938 33.8184H407.153C407.31 35.9961 408.682 37.085 411.27 37.085C412.92 37.085 414.37 36.6943 415.62 35.9131V39.2529C414.233 39.9951 412.432 40.3662 410.215 40.3662C407.793 40.3662 405.913 39.6973 404.575 38.3594C403.237 37.0117 402.568 35.1367 402.568 32.7344C402.568 30.2441 403.291 28.2715 404.736 26.8164C406.182 25.3613 407.959 24.6338 410.068 24.6338C412.256 24.6338 413.945 25.2832 415.137 26.582C416.338 27.8809 416.938 29.6436 416.938 31.8701V33.8184ZM412.646 30.9766C412.646 28.8281 411.777 27.7539 410.039 27.7539C409.297 27.7539 408.652 28.0615 408.105 28.6768C407.568 29.292 407.241 30.0586 407.124 30.9766H412.646Z" fill="#1D9FDA"/>
<path d="M210.225 5.09282C213.035 5.09282 215.267 7.36825 215.267 10.05C215.267 12.7318 212.953 15.0072 210.225 15.0072C207.498 15.0072 205.184 12.7318 205.184 10.05C205.184 7.36825 207.415 5.09282 210.225 5.09282ZM210.225 4.60522C207.085 4.60522 204.605 7.04318 204.605 10.1313C204.605 13.2194 207.085 15.6573 210.225 15.6573C213.366 15.6573 215.845 13.2194 215.845 10.2125C215.845 7.20572 213.366 4.60522 210.225 4.60522Z" fill="#4B4D4D"/>
<path d="M207.787 12.8941V7.2868H210.267C210.763 7.2868 211.176 7.36807 211.424 7.44934C211.672 7.5306 211.92 7.69313 212.085 8.01819C212.25 8.34325 212.333 8.58705 212.333 8.91211C212.333 9.31844 212.25 9.6435 211.92 9.96856C211.672 10.2124 211.259 10.3749 210.68 10.5374C210.928 10.6187 211.011 10.6999 211.093 10.7812C211.341 11.025 211.506 11.1875 211.672 11.5126L212.664 12.9754H211.837L211.093 11.6751C210.845 11.3501 210.68 11.1063 210.515 10.9437C210.349 10.7812 210.267 10.6187 210.101 10.5374C210.019 10.4562 209.853 10.4562 209.771 10.3749C209.688 10.3749 209.523 10.3749 209.358 10.3749H208.531V12.8128L207.787 12.8941ZM208.531 9.80603H210.184C210.515 9.80603 210.763 9.72476 211.011 9.72476C211.259 9.6435 211.341 9.56223 211.424 9.3997C211.506 9.23717 211.589 9.07464 211.589 8.91211C211.589 8.66832 211.506 8.42452 211.341 8.26199C211.093 8.09946 210.845 8.01819 210.432 8.01819H208.614L208.531 9.80603Z" fill="#4B4D4D"/>
</svg>
