<svg width="546" height="50" viewBox="0 0 546 50" fill="none" xmlns="http://www.w3.org/2000/svg">
<path d="M15.9951 40.514C11.7325 40.514 8.32648 39.116 5.77714 36.3199C3.2415 33.5101 1.97368 29.7135 1.97368 24.9301C1.97368 20.1467 3.2415 16.3569 5.77714 13.5609C8.32648 10.7511 11.7325 9.34622 15.9951 9.34622C19.2708 9.34622 22.06 10.2303 24.3627 11.9984C26.6653 13.7664 27.9605 16.0965 28.2484 18.9885H24.1365C23.972 17.0833 23.1428 15.5688 21.6488 14.4449C20.1686 13.321 18.2977 12.759 16.0362 12.759C12.9797 12.759 10.5606 13.8144 8.77878 15.9252C6.99698 18.0222 6.10609 21.0238 6.10609 24.9301C6.10609 28.8226 6.99013 31.8243 8.75822 33.935C10.5263 36.0458 12.9249 37.1012 15.9539 37.1012C18.3114 37.1012 20.2166 36.5255 21.6694 35.3742C23.1223 34.2229 23.9446 32.5781 24.1365 30.44H28.2484C27.9605 33.6472 26.6996 36.128 24.4655 37.8824C22.2314 39.6368 19.4079 40.514 15.9951 40.514ZM37.1711 40H33.2854V9.8602H37.1711V40ZM51.7475 17.6933C54.8588 17.6933 57.3396 18.687 59.19 20.6743C61.054 22.6617 61.986 25.4715 61.986 29.1036C61.986 32.722 61.054 35.5318 59.19 37.5329C57.3396 39.5203 54.8588 40.514 51.7475 40.514C48.6499 40.514 46.1691 39.5203 44.3051 37.5329C42.4548 35.5318 41.5296 32.722 41.5296 29.1036C41.5296 25.4715 42.4548 22.6617 44.3051 20.6743C46.1691 18.687 48.6499 17.6933 51.7475 17.6933ZM51.7475 37.4712C53.5979 37.4712 55.0987 36.7722 56.25 35.3742C57.4013 33.9624 57.977 31.8723 57.977 29.1036C57.977 26.3213 57.4013 24.2311 56.25 22.8331C55.0987 21.4213 53.5979 20.7155 51.7475 20.7155C49.8972 20.7155 48.3964 21.4213 47.2451 22.8331C46.0938 24.2311 45.5181 26.3213 45.5181 29.1036C45.5181 31.8723 46.0938 33.9624 47.2451 35.3742C48.3964 36.7722 49.8972 37.4712 51.7475 37.4712ZM80.1604 37.2245C78.2278 39.4175 76.0554 40.514 73.6431 40.514C68.7226 40.514 66.2623 37.8276 66.2623 32.4548V18.1867H70.148V32.2903C70.148 34.0721 70.4633 35.3536 71.0938 36.1349C71.7242 36.9161 72.7659 37.3067 74.2188 37.3067C76.3843 37.3067 78.3649 36.1417 80.1604 33.8117V18.1867H84.0255V40H80.1604V37.2245ZM103.598 33.7294V23.3676C101.926 21.5995 100.014 20.7155 97.8618 20.7155C96.2034 20.7155 94.8739 21.435 93.8734 22.8742C92.8865 24.2996 92.3931 26.4309 92.3931 29.2681C92.3931 31.9545 92.8591 33.9967 93.7911 35.3947C94.7368 36.7791 96.0389 37.4712 97.6974 37.4712C99.8629 37.4712 101.83 36.224 103.598 33.7294ZM103.598 37.389C101.871 39.4723 99.7944 40.514 97.3684 40.514C94.5175 40.514 92.3109 39.4997 90.7484 37.4712C89.1859 35.4427 88.4046 32.7083 88.4046 29.2681C88.4046 25.7045 89.2749 22.8879 91.0156 20.8183C92.77 18.7349 94.9698 17.6933 97.6151 17.6933C99.9726 17.6933 101.967 18.4197 103.598 19.8725V9.8602H107.463V40H103.598V37.389Z" fill="#1D9FDA"/>
<path d="M129.317 27.6645L124.013 13.6842L118.956 27.6645H129.317ZM138.487 40H133.984L130.489 30.8306H117.866L114.535 40H110.321L121.896 9.8602H126.192L138.487 40ZM149.774 40.0411C148.924 40.2056 147.999 40.2878 146.998 40.2878C145.408 40.2878 144.243 40.0069 143.503 39.4449C142.763 38.8692 142.304 38.136 142.126 37.2451C141.948 36.3542 141.859 35.1412 141.859 33.6061V21.2294H139.165V18.1867H141.859V12.759H145.724V18.1867H149.26V21.2294H145.724V33.8117C145.724 35.3056 145.909 36.2582 146.279 36.6694C146.663 37.0669 147.183 37.2656 147.841 37.2656C148.513 37.2656 149.157 37.2108 149.774 37.1012V40.0411ZM156.908 40H153.022V9.8602H156.908V40ZM176.46 34.264V29.4326H173.808C168.188 29.4326 165.378 30.9608 165.378 34.0173C165.378 35.1275 165.789 35.9841 166.612 36.5872C167.434 37.1765 168.544 37.4712 169.942 37.4712C171.217 37.4712 172.451 37.1834 173.643 36.6077C174.836 36.0321 175.774 35.2508 176.46 34.264ZM176.46 37.759C174.486 39.5957 171.944 40.514 168.832 40.514C166.667 40.514 164.885 39.9315 163.487 38.7664C162.089 37.5877 161.39 36.0732 161.39 34.2229C161.39 29.1242 165.783 26.5748 174.568 26.5748H176.46C176.46 25.0123 176.377 23.8816 176.213 23.1826C176.049 22.4698 175.589 21.8805 174.836 21.4145C174.082 20.9485 172.882 20.7155 171.238 20.7155C167.784 20.7155 166.002 21.949 165.892 24.4161H162.027C162.315 19.9342 165.454 17.6933 171.443 17.6933C174.239 17.6933 176.419 18.2484 177.981 19.3586C179.544 20.4688 180.325 22.648 180.325 25.8964V40H176.46V37.759ZM193.873 40.514C187.911 40.514 184.793 38.1702 184.519 33.4827H188.405C188.432 36.1417 190.241 37.4712 193.832 37.4712C195.436 37.4712 196.656 37.1423 197.492 36.4844C198.342 35.8128 198.766 34.9767 198.766 33.9762C198.766 32.9893 198.355 32.2971 197.533 31.8997C196.711 31.4885 195.011 30.9608 192.434 30.3166C189.871 29.6724 187.993 28.9529 186.801 28.1579C185.622 27.3629 185.033 25.9649 185.033 23.9638C185.033 22.1546 185.766 20.6606 187.233 19.4819C188.713 18.2895 190.687 17.6933 193.154 17.6933C198.869 17.6933 201.789 19.7286 201.912 23.7993H198.047C197.91 21.7434 196.368 20.7155 193.421 20.7155C192.119 20.7155 191.036 20.9622 190.173 21.4556C189.323 21.949 188.898 22.6686 188.898 23.6143C188.898 24.4641 189.227 25.0809 189.885 25.4646C190.543 25.8347 192.187 26.3418 194.819 26.986C197.464 27.6165 199.424 28.3566 200.699 29.2064C201.987 30.0562 202.632 31.5228 202.632 33.6061C202.632 35.5935 201.837 37.2451 200.247 38.5609C198.67 39.8629 196.546 40.514 193.873 40.514Z" fill="#4B4D4D"/>
<path d="M251.338 40H246.665V27.4316C246.665 26.0742 246.724 24.5752 246.841 22.9346H246.724C246.479 24.2236 246.26 25.1514 246.064 25.7178L241.143 40H237.275L232.266 25.8643C232.129 25.4834 231.909 24.5068 231.606 22.9346H231.475C231.602 25.0049 231.665 26.8213 231.665 28.3838V40H227.402V18.9941H234.331L238.623 31.4453C238.965 32.4414 239.214 33.4424 239.37 34.4482H239.458C239.722 33.2861 240 32.2754 240.293 31.416L244.585 18.9941H251.338V40ZM268.14 40H263.76V37.8467H263.701C262.695 39.5264 261.206 40.3662 259.233 40.3662C257.778 40.3662 256.631 39.9561 255.791 39.1357C254.961 38.3057 254.546 37.2021 254.546 35.8252C254.546 32.915 256.27 31.2354 259.717 30.7861L263.789 30.2441C263.789 28.6035 262.9 27.7832 261.123 27.7832C259.336 27.7832 257.637 28.3154 256.025 29.3799V25.8936C256.67 25.5615 257.549 25.2686 258.662 25.0146C259.785 24.7607 260.806 24.6338 261.724 24.6338C266.001 24.6338 268.14 26.7676 268.14 31.0352V40ZM263.789 33.9062V32.8955L261.064 33.2471C259.561 33.4424 258.809 34.1211 258.809 35.2832C258.809 35.8105 258.989 36.2451 259.351 36.5869C259.722 36.9189 260.22 37.085 260.845 37.085C261.714 37.085 262.422 36.7871 262.969 36.1914C263.516 35.5859 263.789 34.8242 263.789 33.9062ZM286.289 40H281.675V31.665C281.675 29.3408 280.845 28.1787 279.185 28.1787C278.384 28.1787 277.725 28.4863 277.207 29.1016C276.689 29.7168 276.431 30.498 276.431 31.4453V40H271.802V25H276.431V27.373H276.489C277.593 25.5469 279.199 24.6338 281.309 24.6338C284.629 24.6338 286.289 26.6943 286.289 30.8154V40ZM302.446 40H298.066V37.8467H298.008C297.002 39.5264 295.513 40.3662 293.54 40.3662C292.085 40.3662 290.938 39.9561 290.098 39.1357C289.268 38.3057 288.853 37.2021 288.853 35.8252C288.853 32.915 290.576 31.2354 294.023 30.7861L298.096 30.2441C298.096 28.6035 297.207 27.7832 295.43 27.7832C293.643 27.7832 291.943 28.3154 290.332 29.3799V25.8936C290.977 25.5615 291.855 25.2686 292.969 25.0146C294.092 24.7607 295.112 24.6338 296.03 24.6338C300.308 24.6338 302.446 26.7676 302.446 31.0352V40ZM298.096 33.9062V32.8955L295.371 33.2471C293.867 33.4424 293.115 34.1211 293.115 35.2832C293.115 35.8105 293.296 36.2451 293.657 36.5869C294.028 36.9189 294.526 37.085 295.151 37.085C296.021 37.085 296.729 36.7871 297.275 36.1914C297.822 35.5859 298.096 34.8242 298.096 33.9062ZM320.815 38.2861C320.815 41.0693 320.01 43.2227 318.398 44.7461C316.787 46.2793 314.453 47.0459 311.396 47.0459C309.375 47.0459 307.773 46.7578 306.592 46.1816V42.2852C308.135 43.1836 309.692 43.6328 311.265 43.6328C312.827 43.6328 314.038 43.2178 314.897 42.3877C315.757 41.5674 316.187 40.4492 316.187 39.0332V37.8467H316.128C315.073 39.5264 313.516 40.3662 311.455 40.3662C309.541 40.3662 308.022 39.6924 306.899 38.3447C305.776 36.9971 305.215 35.1904 305.215 32.9248C305.215 30.3857 305.84 28.3691 307.09 26.875C308.34 25.3809 309.985 24.6338 312.026 24.6338C313.853 24.6338 315.22 25.3369 316.128 26.7432H316.187V25H320.815V38.2861ZM316.245 32.793V31.6064C316.245 30.6592 315.962 29.8535 315.396 29.1895C314.839 28.5156 314.111 28.1787 313.213 28.1787C312.188 28.1787 311.382 28.5791 310.796 29.3799C310.21 30.1807 309.917 31.3086 309.917 32.7637C309.917 34.0137 310.195 35.0049 310.752 35.7373C311.309 36.46 312.07 36.8213 313.037 36.8213C313.994 36.8213 314.766 36.4551 315.352 35.7227C315.947 34.9805 316.245 34.0039 316.245 32.793ZM338.159 33.8184H328.374C328.53 35.9961 329.902 37.085 332.49 37.085C334.141 37.085 335.591 36.6943 336.841 35.9131V39.2529C335.454 39.9951 333.652 40.3662 331.436 40.3662C329.014 40.3662 327.134 39.6973 325.796 38.3594C324.458 37.0117 323.789 35.1367 323.789 32.7344C323.789 30.2441 324.512 28.2715 325.957 26.8164C327.402 25.3613 329.18 24.6338 331.289 24.6338C333.477 24.6338 335.166 25.2832 336.357 26.582C337.559 27.8809 338.159 29.6436 338.159 31.8701V33.8184ZM333.867 30.9766C333.867 28.8281 332.998 27.7539 331.26 27.7539C330.518 27.7539 329.873 28.0615 329.326 28.6768C328.789 29.292 328.462 30.0586 328.345 30.9766H333.867ZM361.685 40H357.305V37.8467H357.246C356.24 39.5264 354.751 40.3662 352.778 40.3662C351.323 40.3662 350.176 39.9561 349.336 39.1357C348.506 38.3057 348.091 37.2021 348.091 35.8252C348.091 32.915 349.814 31.2354 353.262 30.7861L357.334 30.2441C357.334 28.6035 356.445 27.7832 354.668 27.7832C352.881 27.7832 351.182 28.3154 349.57 29.3799V25.8936C350.215 25.5615 351.094 25.2686 352.207 25.0146C353.33 24.7607 354.351 24.6338 355.269 24.6338C359.546 24.6338 361.685 26.7676 361.685 31.0352V40ZM357.334 33.9062V32.8955L354.609 33.2471C353.105 33.4424 352.354 34.1211 352.354 35.2832C352.354 35.8105 352.534 36.2451 352.896 36.5869C353.267 36.9189 353.765 37.085 354.39 37.085C355.259 37.085 355.967 36.7871 356.514 36.1914C357.061 35.5859 357.334 34.8242 357.334 33.9062ZM379.834 40H375.22V31.665C375.22 29.3408 374.39 28.1787 372.729 28.1787C371.929 28.1787 371.27 28.4863 370.752 29.1016C370.234 29.7168 369.976 30.498 369.976 31.4453V40H365.347V25H369.976V27.373H370.034C371.138 25.5469 372.744 24.6338 374.854 24.6338C378.174 24.6338 379.834 26.6943 379.834 30.8154V40ZM398.188 40H393.56V37.9346H393.501C392.446 39.5557 390.898 40.3662 388.857 40.3662C386.982 40.3662 385.474 39.707 384.331 38.3887C383.188 37.0605 382.617 35.21 382.617 32.8369C382.617 30.3564 383.247 28.3691 384.507 26.875C385.767 25.3809 387.417 24.6338 389.458 24.6338C391.392 24.6338 392.739 25.3271 393.501 26.7139H393.56V17.793H398.188V40ZM393.647 32.7051V31.5771C393.647 30.6006 393.364 29.79 392.798 29.1455C392.231 28.501 391.494 28.1787 390.586 28.1787C389.561 28.1787 388.76 28.584 388.184 29.3945C387.607 30.1953 387.319 31.2988 387.319 32.7051C387.319 34.0234 387.598 35.0391 388.154 35.752C388.711 36.4648 389.482 36.8213 390.469 36.8213C391.406 36.8213 392.168 36.4453 392.754 35.6934C393.35 34.9414 393.647 33.9453 393.647 32.7051ZM419.707 40.3662C416.699 40.3662 414.248 39.3896 412.354 37.4365C410.459 35.4736 409.512 32.9199 409.512 29.7754C409.512 26.4551 410.474 23.7695 412.397 21.7188C414.321 19.668 416.87 18.6426 420.044 18.6426C423.042 18.6426 425.464 19.624 427.31 21.5869C429.165 23.5498 430.093 26.1377 430.093 29.3506C430.093 32.6514 429.131 35.3125 427.207 37.334C425.293 39.3555 422.793 40.3662 419.707 40.3662ZM419.912 22.7148C418.252 22.7148 416.934 23.3398 415.957 24.5898C414.98 25.8301 414.492 27.4756 414.492 29.5264C414.492 31.6064 414.98 33.252 415.957 34.4629C416.934 35.6738 418.213 36.2793 419.795 36.2793C421.426 36.2793 422.72 35.6934 423.677 34.5215C424.634 33.3398 425.112 31.7041 425.112 29.6143C425.112 27.4365 424.648 25.7422 423.721 24.5312C422.793 23.3203 421.523 22.7148 419.912 22.7148ZM437.827 38.2568H437.769V46.8994H433.14V25H437.769V27.2559H437.827C438.97 25.5078 440.576 24.6338 442.646 24.6338C444.59 24.6338 446.089 25.3027 447.144 26.6406C448.208 27.9688 448.74 29.7803 448.74 32.0752C448.74 34.5752 448.12 36.582 446.88 38.0957C445.649 39.6094 444.009 40.3662 441.958 40.3662C440.151 40.3662 438.774 39.6631 437.827 38.2568ZM437.695 32.1045V33.3057C437.695 34.3408 437.969 35.1855 438.516 35.8398C439.062 36.4941 439.78 36.8213 440.669 36.8213C441.724 36.8213 442.539 36.416 443.115 35.6055C443.701 34.7852 443.994 33.6279 443.994 32.1338C443.994 29.4971 442.969 28.1787 440.918 28.1787C439.971 28.1787 439.194 28.54 438.589 29.2627C437.993 29.9756 437.695 30.9229 437.695 32.1045ZM460.811 39.8242C460.127 40.1855 459.097 40.3662 457.72 40.3662C454.458 40.3662 452.827 38.6719 452.827 35.2832V28.4131H450.396V25H452.827V21.7627L457.441 20.4443V25H460.811V28.4131H457.441V34.4775C457.441 36.04 458.062 36.8213 459.302 36.8213C459.79 36.8213 460.293 36.6797 460.811 36.3965V39.8242ZM465.776 22.627C464.995 22.627 464.355 22.3975 463.857 21.9385C463.359 21.4697 463.11 20.8984 463.11 20.2246C463.11 19.5312 463.359 18.9648 463.857 18.5254C464.355 18.0859 464.995 17.8662 465.776 17.8662C466.567 17.8662 467.207 18.0859 467.695 18.5254C468.193 18.9648 468.442 19.5312 468.442 20.2246C468.442 20.9277 468.193 21.5039 467.695 21.9531C467.207 22.4023 466.567 22.627 465.776 22.627ZM468.062 40H463.433V25H468.062V40ZM495.776 40H491.162V31.4453C491.162 29.2676 490.361 28.1787 488.76 28.1787C487.998 28.1787 487.378 28.5059 486.899 29.1602C486.421 29.8145 486.182 30.6299 486.182 31.6064V40H481.553V31.3574C481.553 29.2383 480.767 28.1787 479.194 28.1787C478.403 28.1787 477.769 28.4912 477.29 29.1162C476.821 29.7412 476.587 30.5908 476.587 31.665V40H471.958V25H476.587V27.3438H476.646C477.124 26.543 477.793 25.8936 478.652 25.3955C479.521 24.8877 480.469 24.6338 481.494 24.6338C483.613 24.6338 485.063 25.5664 485.845 27.4316C486.987 25.5664 488.667 24.6338 490.884 24.6338C494.146 24.6338 495.776 26.6455 495.776 30.6689V40ZM501.782 22.627C501.001 22.627 500.361 22.3975 499.863 21.9385C499.365 21.4697 499.116 20.8984 499.116 20.2246C499.116 19.5312 499.365 18.9648 499.863 18.5254C500.361 18.0859 501.001 17.8662 501.782 17.8662C502.573 17.8662 503.213 18.0859 503.701 18.5254C504.199 18.9648 504.448 19.5312 504.448 20.2246C504.448 20.9277 504.199 21.5039 503.701 21.9531C503.213 22.4023 502.573 22.627 501.782 22.627ZM504.067 40H499.438V25H504.067V40ZM519.844 40H506.382V38.0811L513.911 28.4131H507.129V25H519.785V27.2852L512.651 36.5869H519.844V40ZM535.825 33.8184H526.04C526.196 35.9961 527.568 37.085 530.156 37.085C531.807 37.085 533.257 36.6943 534.507 35.9131V39.2529C533.12 39.9951 531.318 40.3662 529.102 40.3662C526.68 40.3662 524.8 39.6973 523.462 38.3594C522.124 37.0117 521.455 35.1367 521.455 32.7344C521.455 30.2441 522.178 28.2715 523.623 26.8164C525.068 25.3613 526.846 24.6338 528.955 24.6338C531.143 24.6338 532.832 25.2832 534.023 26.582C535.225 27.8809 535.825 29.6436 535.825 31.8701V33.8184ZM531.533 30.9766C531.533 28.8281 530.664 27.7539 528.926 27.7539C528.184 27.7539 527.539 28.0615 526.992 28.6768C526.455 29.292 526.128 30.0586 526.011 30.9766H531.533Z" fill="#1D9FDA"/>
<path d="M210.225 5.09282C213.035 5.09282 215.267 7.36825 215.267 10.05C215.267 12.7318 212.953 15.0072 210.225 15.0072C207.498 15.0072 205.184 12.7318 205.184 10.05C205.184 7.36825 207.415 5.09282 210.225 5.09282ZM210.225 4.60522C207.085 4.60522 204.605 7.04318 204.605 10.1313C204.605 13.2194 207.085 15.6573 210.225 15.6573C213.366 15.6573 215.845 13.2194 215.845 10.2125C215.845 7.20572 213.366 4.60522 210.225 4.60522Z" fill="#4B4D4D"/>
<path d="M207.787 12.8941V7.28679H210.267C210.763 7.28679 211.176 7.36805 211.424 7.44932C211.672 7.53059 211.92 7.69312 212.085 8.01818C212.25 8.34324 212.333 8.58703 212.333 8.9121C212.333 9.31842 212.25 9.64348 211.92 9.96855C211.672 10.2123 211.259 10.3749 210.68 10.5374C210.928 10.6187 211.011 10.6999 211.093 10.7812C211.341 11.025 211.506 11.1875 211.672 11.5126L212.664 12.9754H211.837L211.093 11.6751C210.845 11.3501 210.68 11.1063 210.515 10.9437C210.349 10.7812 210.267 10.6187 210.101 10.5374C210.019 10.4561 209.853 10.4561 209.771 10.3749C209.688 10.3749 209.523 10.3749 209.358 10.3749H208.531V12.8128L207.787 12.8941ZM208.531 9.80602H210.184C210.515 9.80602 210.763 9.72475 211.011 9.72475C211.259 9.64348 211.341 9.56222 211.424 9.39969C211.506 9.23716 211.589 9.07463 211.589 8.9121C211.589 8.6683 211.506 8.4245 211.341 8.26197C211.093 8.09944 210.845 8.01818 210.432 8.01818H208.614L208.531 9.80602Z" fill="#4B4D4D"/>
</svg>
