<svg width="568" height="50" viewBox="0 0 568 50" fill="none" xmlns="http://www.w3.org/2000/svg">
<path d="M15.9951 40.514C11.7325 40.514 8.32648 39.116 5.77714 36.3199C3.2415 33.5101 1.97368 29.7135 1.97368 24.9301C1.97368 20.1467 3.2415 16.3569 5.77714 13.5609C8.32648 10.7511 11.7325 9.34622 15.9951 9.34622C19.2708 9.34622 22.06 10.2303 24.3627 11.9984C26.6653 13.7664 27.9605 16.0965 28.2484 18.9885H24.1365C23.972 17.0833 23.1428 15.5688 21.6488 14.4449C20.1686 13.321 18.2977 12.759 16.0362 12.759C12.9797 12.759 10.5606 13.8144 8.77878 15.9252C6.99698 18.0222 6.10609 21.0238 6.10609 24.9301C6.10609 28.8226 6.99013 31.8243 8.75822 33.935C10.5263 36.0458 12.9249 37.1012 15.9539 37.1012C18.3114 37.1012 20.2166 36.5255 21.6694 35.3742C23.1223 34.2229 23.9446 32.5781 24.1365 30.44H28.2484C27.9605 33.6472 26.6996 36.128 24.4655 37.8824C22.2314 39.6368 19.4079 40.514 15.9951 40.514ZM37.1711 40H33.2854V9.8602H37.1711V40ZM51.7475 17.6933C54.8588 17.6933 57.3396 18.687 59.19 20.6743C61.054 22.6617 61.986 25.4715 61.986 29.1036C61.986 32.722 61.054 35.5318 59.19 37.5329C57.3396 39.5203 54.8588 40.514 51.7475 40.514C48.6499 40.514 46.1691 39.5203 44.3051 37.5329C42.4548 35.5318 41.5296 32.722 41.5296 29.1036C41.5296 25.4715 42.4548 22.6617 44.3051 20.6743C46.1691 18.687 48.6499 17.6933 51.7475 17.6933ZM51.7475 37.4712C53.5979 37.4712 55.0987 36.7722 56.25 35.3742C57.4013 33.9624 57.977 31.8723 57.977 29.1036C57.977 26.3213 57.4013 24.2311 56.25 22.8331C55.0987 21.4213 53.5979 20.7155 51.7475 20.7155C49.8972 20.7155 48.3964 21.4213 47.2451 22.8331C46.0938 24.2311 45.5181 26.3213 45.5181 29.1036C45.5181 31.8723 46.0938 33.9624 47.2451 35.3742C48.3964 36.7722 49.8972 37.4712 51.7475 37.4712ZM80.1604 37.2245C78.2278 39.4175 76.0554 40.514 73.6431 40.514C68.7226 40.514 66.2623 37.8276 66.2623 32.4548V18.1867H70.148V32.2903C70.148 34.0721 70.4633 35.3536 71.0938 36.1349C71.7242 36.9161 72.7659 37.3067 74.2188 37.3067C76.3843 37.3067 78.3649 36.1417 80.1604 33.8117V18.1867H84.0255V40H80.1604V37.2245ZM103.598 33.7294V23.3676C101.926 21.5995 100.014 20.7155 97.8618 20.7155C96.2034 20.7155 94.8739 21.435 93.8734 22.8742C92.8865 24.2996 92.3931 26.4309 92.3931 29.2681C92.3931 31.9545 92.8591 33.9967 93.7911 35.3947C94.7368 36.7791 96.0389 37.4712 97.6974 37.4712C99.8629 37.4712 101.83 36.224 103.598 33.7294ZM103.598 37.389C101.871 39.4723 99.7944 40.514 97.3684 40.514C94.5175 40.514 92.3109 39.4997 90.7484 37.4712C89.1859 35.4427 88.4046 32.7083 88.4046 29.2681C88.4046 25.7045 89.2749 22.8879 91.0156 20.8183C92.77 18.7349 94.9698 17.6933 97.6151 17.6933C99.9726 17.6933 101.967 18.4197 103.598 19.8725V9.8602H107.463V40H103.598V37.389Z" fill="#1D9FDA"/>
<path d="M129.317 27.6645L124.013 13.6842L118.956 27.6645H129.317ZM138.487 40H133.984L130.489 30.8306H117.866L114.535 40H110.321L121.896 9.8602H126.192L138.487 40ZM149.774 40.0411C148.924 40.2056 147.999 40.2878 146.998 40.2878C145.408 40.2878 144.243 40.0069 143.503 39.4449C142.763 38.8692 142.304 38.136 142.126 37.2451C141.948 36.3542 141.859 35.1412 141.859 33.6061V21.2294H139.165V18.1867H141.859V12.759H145.724V18.1867H149.26V21.2294H145.724V33.8117C145.724 35.3056 145.909 36.2582 146.279 36.6694C146.663 37.0669 147.183 37.2656 147.841 37.2656C148.513 37.2656 149.157 37.2108 149.774 37.1012V40.0411ZM156.908 40H153.022V9.8602H156.908V40ZM176.46 34.264V29.4326H173.808C168.188 29.4326 165.378 30.9608 165.378 34.0173C165.378 35.1275 165.789 35.9841 166.612 36.5872C167.434 37.1765 168.544 37.4712 169.942 37.4712C171.217 37.4712 172.451 37.1834 173.643 36.6077C174.836 36.0321 175.774 35.2508 176.46 34.264ZM176.46 37.759C174.486 39.5957 171.944 40.514 168.832 40.514C166.667 40.514 164.885 39.9315 163.487 38.7664C162.089 37.5877 161.39 36.0732 161.39 34.2229C161.39 29.1242 165.783 26.5748 174.568 26.5748H176.46C176.46 25.0123 176.377 23.8816 176.213 23.1826C176.049 22.4698 175.589 21.8805 174.836 21.4145C174.082 20.9485 172.882 20.7155 171.238 20.7155C167.784 20.7155 166.002 21.949 165.892 24.4161H162.027C162.315 19.9342 165.454 17.6933 171.443 17.6933C174.239 17.6933 176.419 18.2484 177.981 19.3586C179.544 20.4688 180.325 22.648 180.325 25.8964V40H176.46V37.759ZM193.873 40.514C187.911 40.514 184.793 38.1702 184.519 33.4827H188.405C188.432 36.1417 190.241 37.4712 193.832 37.4712C195.436 37.4712 196.656 37.1423 197.492 36.4844C198.342 35.8128 198.766 34.9767 198.766 33.9762C198.766 32.9893 198.355 32.2971 197.533 31.8997C196.711 31.4885 195.011 30.9608 192.434 30.3166C189.871 29.6724 187.993 28.9529 186.801 28.1579C185.622 27.3629 185.033 25.9649 185.033 23.9638C185.033 22.1546 185.766 20.6606 187.233 19.4819C188.713 18.2895 190.687 17.6933 193.154 17.6933C198.869 17.6933 201.789 19.7286 201.912 23.7993H198.047C197.91 21.7434 196.368 20.7155 193.421 20.7155C192.119 20.7155 191.036 20.9622 190.173 21.4556C189.323 21.949 188.898 22.6686 188.898 23.6143C188.898 24.4641 189.227 25.0809 189.885 25.4646C190.543 25.8347 192.187 26.3418 194.819 26.986C197.464 27.6165 199.424 28.3566 200.699 29.2064C201.987 30.0562 202.632 31.5228 202.632 33.6061C202.632 35.5935 201.837 37.2451 200.247 38.5609C198.67 39.8629 196.546 40.514 193.873 40.514Z" fill="#4B4D4D"/>
<path d="M251.338 40H246.665V27.4316C246.665 26.0742 246.724 24.5752 246.841 22.9346H246.724C246.479 24.2236 246.26 25.1514 246.064 25.7178L241.143 40H237.275L232.266 25.8643C232.129 25.4834 231.909 24.5068 231.606 22.9346H231.475C231.602 25.0049 231.665 26.8213 231.665 28.3838V40H227.402V18.9941H234.331L238.623 31.4453C238.965 32.4414 239.214 33.4424 239.37 34.4482H239.458C239.722 33.2861 240 32.2754 240.293 31.416L244.585 18.9941H251.338V40ZM262.808 40.3662C260.308 40.3662 258.34 39.668 256.904 38.2715C255.479 36.8652 254.766 34.9609 254.766 32.5586C254.766 30.0781 255.508 28.1396 256.992 26.7432C258.477 25.3369 260.483 24.6338 263.013 24.6338C265.503 24.6338 267.456 25.3369 268.872 26.7432C270.288 28.1396 270.996 29.9902 270.996 32.2949C270.996 34.7852 270.264 36.7529 268.799 38.1982C267.344 39.6436 265.347 40.3662 262.808 40.3662ZM262.925 28.1787C261.831 28.1787 260.981 28.5547 260.376 29.3066C259.771 30.0586 259.468 31.123 259.468 32.5C259.468 35.3809 260.63 36.8213 262.954 36.8213C265.171 36.8213 266.279 35.3418 266.279 32.3828C266.279 29.5801 265.161 28.1787 262.925 28.1787ZM288.677 40H284.048V37.9346H283.989C282.935 39.5557 281.387 40.3662 279.346 40.3662C277.471 40.3662 275.962 39.707 274.819 38.3887C273.677 37.0605 273.105 35.21 273.105 32.8369C273.105 30.3564 273.735 28.3691 274.995 26.875C276.255 25.3809 277.905 24.6338 279.946 24.6338C281.88 24.6338 283.228 25.3271 283.989 26.7139H284.048V17.793H288.677V40ZM284.136 32.7051V31.5771C284.136 30.6006 283.853 29.79 283.286 29.1455C282.72 28.501 281.982 28.1787 281.074 28.1787C280.049 28.1787 279.248 28.584 278.672 29.3945C278.096 30.1953 277.808 31.2988 277.808 32.7051C277.808 34.0234 278.086 35.0391 278.643 35.752C279.199 36.4648 279.971 36.8213 280.957 36.8213C281.895 36.8213 282.656 36.4453 283.242 35.6934C283.838 34.9414 284.136 33.9453 284.136 32.7051ZM306.05 33.8184H296.265C296.421 35.9961 297.793 37.085 300.381 37.085C302.031 37.085 303.481 36.6943 304.731 35.9131V39.2529C303.345 39.9951 301.543 40.3662 299.326 40.3662C296.904 40.3662 295.024 39.6973 293.687 38.3594C292.349 37.0117 291.68 35.1367 291.68 32.7344C291.68 30.2441 292.402 28.2715 293.848 26.8164C295.293 25.3613 297.07 24.6338 299.18 24.6338C301.367 24.6338 303.057 25.2832 304.248 26.582C305.449 27.8809 306.05 29.6436 306.05 31.8701V33.8184ZM301.758 30.9766C301.758 28.8281 300.889 27.7539 299.15 27.7539C298.408 27.7539 297.764 28.0615 297.217 28.6768C296.68 29.292 296.353 30.0586 296.235 30.9766H301.758ZM318.589 29.1748C318.032 28.8721 317.383 28.7207 316.641 28.7207C315.635 28.7207 314.849 29.0918 314.282 29.834C313.716 30.5664 313.433 31.5674 313.433 32.8369V40H308.804V25H313.433V27.7832H313.491C314.224 25.752 315.542 24.7363 317.446 24.7363C317.935 24.7363 318.315 24.7949 318.589 24.9121V29.1748ZM335.244 40H330.63V31.665C330.63 29.3408 329.8 28.1787 328.14 28.1787C327.339 28.1787 326.68 28.4863 326.162 29.1016C325.645 29.7168 325.386 30.498 325.386 31.4453V40H320.757V25H325.386V27.373H325.444C326.548 25.5469 328.154 24.6338 330.264 24.6338C333.584 24.6338 335.244 26.6943 335.244 30.8154V40ZM341.265 22.627C340.483 22.627 339.844 22.3975 339.346 21.9385C338.848 21.4697 338.599 20.8984 338.599 20.2246C338.599 19.5312 338.848 18.9648 339.346 18.5254C339.844 18.0859 340.483 17.8662 341.265 17.8662C342.056 17.8662 342.695 18.0859 343.184 18.5254C343.682 18.9648 343.931 19.5312 343.931 20.2246C343.931 20.9277 343.682 21.5039 343.184 21.9531C342.695 22.4023 342.056 22.627 341.265 22.627ZM343.55 40H338.921V25H343.55V40ZM359.326 40H345.864V38.0811L353.394 28.4131H346.611V25H359.268V27.2852L352.134 36.5869H359.326V40ZM375.308 33.8184H365.522C365.679 35.9961 367.051 37.085 369.639 37.085C371.289 37.085 372.739 36.6943 373.989 35.9131V39.2529C372.603 39.9951 370.801 40.3662 368.584 40.3662C366.162 40.3662 364.282 39.6973 362.944 38.3594C361.606 37.0117 360.938 35.1367 360.938 32.7344C360.938 30.2441 361.66 28.2715 363.105 26.8164C364.551 25.3613 366.328 24.6338 368.438 24.6338C370.625 24.6338 372.314 25.2832 373.506 26.582C374.707 27.8809 375.308 29.6436 375.308 31.8701V33.8184ZM371.016 30.9766C371.016 28.8281 370.146 27.7539 368.408 27.7539C367.666 27.7539 367.021 28.0615 366.475 28.6768C365.938 29.292 365.61 30.0586 365.493 30.9766H371.016ZM398.833 40H394.453V37.8467H394.395C393.389 39.5264 391.899 40.3662 389.927 40.3662C388.472 40.3662 387.324 39.9561 386.484 39.1357C385.654 38.3057 385.239 37.2021 385.239 35.8252C385.239 32.915 386.963 31.2354 390.41 30.7861L394.482 30.2441C394.482 28.6035 393.594 27.7832 391.816 27.7832C390.029 27.7832 388.33 28.3154 386.719 29.3799V25.8936C387.363 25.5615 388.242 25.2686 389.355 25.0146C390.479 24.7607 391.499 24.6338 392.417 24.6338C396.694 24.6338 398.833 26.7676 398.833 31.0352V40ZM394.482 33.9062V32.8955L391.758 33.2471C390.254 33.4424 389.502 34.1211 389.502 35.2832C389.502 35.8105 389.683 36.2451 390.044 36.5869C390.415 36.9189 390.913 37.085 391.538 37.085C392.407 37.085 393.115 36.7871 393.662 36.1914C394.209 35.5859 394.482 34.8242 394.482 33.9062ZM416.982 40H412.368V31.665C412.368 29.3408 411.538 28.1787 409.878 28.1787C409.077 28.1787 408.418 28.4863 407.9 29.1016C407.383 29.7168 407.124 30.498 407.124 31.4453V40H402.495V25H407.124V27.373H407.183C408.286 25.5469 409.893 24.6338 412.002 24.6338C415.322 24.6338 416.982 26.6943 416.982 30.8154V40ZM435.337 40H430.708V37.9346H430.649C429.595 39.5557 428.047 40.3662 426.006 40.3662C424.131 40.3662 422.622 39.707 421.479 38.3887C420.337 37.0605 419.766 35.21 419.766 32.8369C419.766 30.3564 420.396 28.3691 421.655 26.875C422.915 25.3809 424.565 24.6338 426.606 24.6338C428.54 24.6338 429.888 25.3271 430.649 26.7139H430.708V17.793H435.337V40ZM430.796 32.7051V31.5771C430.796 30.6006 430.513 29.79 429.946 29.1455C429.38 28.501 428.643 28.1787 427.734 28.1787C426.709 28.1787 425.908 28.584 425.332 29.3945C424.756 30.1953 424.468 31.2988 424.468 32.7051C424.468 34.0234 424.746 35.0391 425.303 35.752C425.859 36.4648 426.631 36.8213 427.617 36.8213C428.555 36.8213 429.316 36.4453 429.902 35.6934C430.498 34.9414 430.796 33.9453 430.796 32.7051ZM471.914 40H467.241V27.4316C467.241 26.0742 467.3 24.5752 467.417 22.9346H467.3C467.056 24.2236 466.836 25.1514 466.641 25.7178L461.719 40H457.852L452.842 25.8643C452.705 25.4834 452.485 24.5068 452.183 22.9346H452.051C452.178 25.0049 452.241 26.8213 452.241 28.3838V40H447.979V18.9941H454.907L459.199 31.4453C459.541 32.4414 459.79 33.4424 459.946 34.4482H460.034C460.298 33.2861 460.576 32.2754 460.869 31.416L465.161 18.9941H471.914V40ZM478.579 22.627C477.798 22.627 477.158 22.3975 476.66 21.9385C476.162 21.4697 475.913 20.8984 475.913 20.2246C475.913 19.5312 476.162 18.9648 476.66 18.5254C477.158 18.0859 477.798 17.8662 478.579 17.8662C479.37 17.8662 480.01 18.0859 480.498 18.5254C480.996 18.9648 481.245 19.5312 481.245 20.2246C481.245 20.9277 480.996 21.5039 480.498 21.9531C480.01 22.4023 479.37 22.627 478.579 22.627ZM480.864 40H476.235V25H480.864V40ZM499.468 38.2861C499.468 41.0693 498.662 43.2227 497.051 44.7461C495.439 46.2793 493.105 47.0459 490.049 47.0459C488.027 47.0459 486.426 46.7578 485.244 46.1816V42.2852C486.787 43.1836 488.345 43.6328 489.917 43.6328C491.479 43.6328 492.69 43.2178 493.55 42.3877C494.409 41.5674 494.839 40.4492 494.839 39.0332V37.8467H494.78C493.726 39.5264 492.168 40.3662 490.107 40.3662C488.193 40.3662 486.675 39.6924 485.552 38.3447C484.429 36.9971 483.867 35.1904 483.867 32.9248C483.867 30.3857 484.492 28.3691 485.742 26.875C486.992 25.3809 488.638 24.6338 490.679 24.6338C492.505 24.6338 493.872 25.3369 494.78 26.7432H494.839V25H499.468V38.2861ZM494.897 32.793V31.6064C494.897 30.6592 494.614 29.8535 494.048 29.1895C493.491 28.5156 492.764 28.1787 491.865 28.1787C490.84 28.1787 490.034 28.5791 489.448 29.3799C488.862 30.1807 488.569 31.3086 488.569 32.7637C488.569 34.0137 488.848 35.0049 489.404 35.7373C489.961 36.46 490.723 36.8213 491.689 36.8213C492.646 36.8213 493.418 36.4551 494.004 35.7227C494.6 34.9805 494.897 34.0039 494.897 32.793ZM513.12 29.1748C512.563 28.8721 511.914 28.7207 511.172 28.7207C510.166 28.7207 509.38 29.0918 508.813 29.834C508.247 30.5664 507.964 31.5674 507.964 32.8369V40H503.335V25H507.964V27.7832H508.022C508.755 25.752 510.073 24.7363 511.978 24.7363C512.466 24.7363 512.847 24.7949 513.12 24.9121V29.1748ZM527.769 40H523.389V37.8467H523.33C522.324 39.5264 520.835 40.3662 518.862 40.3662C517.407 40.3662 516.26 39.9561 515.42 39.1357C514.59 38.3057 514.175 37.2021 514.175 35.8252C514.175 32.915 515.898 31.2354 519.346 30.7861L523.418 30.2441C523.418 28.6035 522.529 27.7832 520.752 27.7832C518.965 27.7832 517.266 28.3154 515.654 29.3799V25.8936C516.299 25.5615 517.178 25.2686 518.291 25.0146C519.414 24.7607 520.435 24.6338 521.353 24.6338C525.63 24.6338 527.769 26.7676 527.769 31.0352V40ZM523.418 33.9062V32.8955L520.693 33.2471C519.189 33.4424 518.438 34.1211 518.438 35.2832C518.438 35.8105 518.618 36.2451 518.979 36.5869C519.351 36.9189 519.849 37.085 520.474 37.085C521.343 37.085 522.051 36.7871 522.598 36.1914C523.145 35.5859 523.418 34.8242 523.418 33.9062ZM540.498 39.8242C539.814 40.1855 538.784 40.3662 537.407 40.3662C534.146 40.3662 532.515 38.6719 532.515 35.2832V28.4131H530.083V25H532.515V21.7627L537.129 20.4443V25H540.498V28.4131H537.129V34.4775C537.129 36.04 537.749 36.8213 538.989 36.8213C539.478 36.8213 539.98 36.6797 540.498 36.3965V39.8242ZM556.597 33.8184H546.812C546.968 35.9961 548.34 37.085 550.928 37.085C552.578 37.085 554.028 36.6943 555.278 35.9131V39.2529C553.892 39.9951 552.09 40.3662 549.873 40.3662C547.451 40.3662 545.571 39.6973 544.233 38.3594C542.896 37.0117 542.227 35.1367 542.227 32.7344C542.227 30.2441 542.949 28.2715 544.395 26.8164C545.84 25.3613 547.617 24.6338 549.727 24.6338C551.914 24.6338 553.604 25.2832 554.795 26.582C555.996 27.8809 556.597 29.6436 556.597 31.8701V33.8184ZM552.305 30.9766C552.305 28.8281 551.436 27.7539 549.697 27.7539C548.955 27.7539 548.311 28.0615 547.764 28.6768C547.227 29.292 546.899 30.0586 546.782 30.9766H552.305Z" fill="#1D9FDA"/>
<path d="M210.225 5.09282C213.035 5.09282 215.267 7.36825 215.267 10.05C215.267 12.7318 212.953 15.0072 210.225 15.0072C207.498 15.0072 205.184 12.7318 205.184 10.05C205.184 7.36825 207.415 5.09282 210.225 5.09282ZM210.225 4.60522C207.085 4.60522 204.605 7.04318 204.605 10.1313C204.605 13.2194 207.085 15.6573 210.225 15.6573C213.366 15.6573 215.845 13.2194 215.845 10.2125C215.845 7.20572 213.366 4.60522 210.225 4.60522Z" fill="#4B4D4D"/>
<path d="M207.787 12.8941V7.28679H210.267C210.763 7.28679 211.176 7.36806 211.424 7.44933C211.672 7.53059 211.92 7.69312 212.085 8.01818C212.25 8.34324 212.333 8.58704 212.333 8.9121C212.333 9.31843 212.25 9.64349 211.92 9.96855C211.672 10.2123 211.259 10.3749 210.68 10.5374C210.928 10.6187 211.011 10.6999 211.093 10.7812C211.341 11.025 211.506 11.1875 211.672 11.5126L212.664 12.9754H211.837L211.093 11.6751C210.845 11.3501 210.68 11.1063 210.515 10.9437C210.349 10.7812 210.267 10.6187 210.101 10.5374C210.019 10.4561 209.853 10.4561 209.771 10.3749C209.688 10.3749 209.523 10.3749 209.358 10.3749H208.531V12.8128L207.787 12.8941ZM208.531 9.80602H210.184C210.515 9.80602 210.763 9.72476 211.011 9.72476C211.259 9.64349 211.341 9.56222 211.424 9.39969C211.506 9.23716 211.589 9.07463 211.589 8.9121C211.589 8.66831 211.506 8.42451 211.341 8.26198C211.093 8.09945 210.845 8.01818 210.432 8.01818H208.614L208.531 9.80602Z" fill="#4B4D4D"/>
</svg>
