<?xml version="1.0" encoding="utf-8"?>
<!-- Generator: Adobe Illustrator 28.1.0, SVG Export Plug-In . SVG Version: 6.00 Build 0)  -->
<svg version="1.1" id="Layer_1" xmlns="http://www.w3.org/2000/svg" xmlns:xlink="http://www.w3.org/1999/xlink" x="0px" y="0px"
	 viewBox="0 0 346.8 42.9" style="enable-background:new 0 0 346.8 42.9;" xml:space="preserve">
<style type="text/css">
	.st0{fill:#1D9FDA;}
	.st1{fill:#4B4D4D;}
	.st2{enable-background:new    ;}
</style>
<path class="st0" d="M14,36.4c-4.3,0-7.7-1.4-10.2-4.2C1.2,29.4,0,25.6,0,20.8s1.3-8.6,3.8-11.4s6-4.2,10.2-4.2
	c3.3,0,6.1,0.9,8.4,2.7s3.6,4.1,3.9,7h-4.1c-0.2-1.9-1-3.4-2.5-4.5s-3.4-1.7-5.6-1.7c-3.1,0-5.5,1.1-7.3,3.2c-1.8,2-2.7,5-2.7,8.9
	s0.9,6.9,2.7,9S11,33,14,33c2.4,0,4.3-0.6,5.7-1.7c1.5-1.2,2.3-2.8,2.5-4.9h4.1c-0.3,3.2-1.5,5.7-3.8,7.4S17.4,36.4,14,36.4z
	 M35.2,35.9h-3.9V5.8h3.9V35.9z M49.7,13.6c3.1,0,5.6,1,7.4,3c1.9,2,2.8,4.8,2.8,8.4s-0.9,6.4-2.8,8.4c-1.9,2-4.3,3-7.4,3
	s-5.6-1-7.4-3c-1.9-2-2.8-4.8-2.8-8.4s0.9-6.4,2.8-8.4C44.2,14.6,46.6,13.6,49.7,13.6z M49.7,33.4c1.9,0,3.4-0.7,4.5-2.1
	c1.2-1.4,1.7-3.5,1.7-6.3s-0.6-4.9-1.7-6.3c-1.2-1.4-2.7-2.1-4.5-2.1c-1.9,0-3.4,0.7-4.5,2.1c-1.2,1.4-1.7,3.5-1.7,6.3
	s0.6,4.9,1.7,6.3C46.4,32.7,47.9,33.4,49.7,33.4z M78.2,33.1c-1.9,2.2-4.1,3.3-6.5,3.3c-4.9,0-7.4-2.7-7.4-8.1V14.1h3.9v14.1
	c0,1.8,0.3,3.1,0.9,3.8c0.6,0.8,1.7,1.2,3.1,1.2c2.2,0,4.1-1.2,5.9-3.5V14.1H82v21.8h-3.9L78.2,33.1C78.1,33.1,78.2,33.1,78.2,33.1z
	 M101.6,29.6V19.3c-1.7-1.8-3.6-2.7-5.7-2.7c-1.7,0-3,0.7-4,2.2c-1,1.4-1.5,3.6-1.5,6.4s0.5,4.7,1.4,6.1s2.2,2.1,3.9,2.1
	C97.9,33.4,99.8,32.1,101.6,29.6z M101.6,33.3c-1.7,2.1-3.8,3.1-6.2,3.1c-2.9,0-5.1-1-6.6-3s-2.3-4.8-2.3-8.2c0-3.6,0.9-6.4,2.6-8.4
	c1.8-2.1,4-3.1,6.6-3.1c2.4,0,4.4,0.7,6,2.2v-10h3.9v30h-3.9L101.6,33.3L101.6,33.3z"/>
<path class="st1" d="M127.3,23.6l-5.3-14l-5.1,14H127.3z M136.5,35.9H132l-3.5-9.2h-12.6l-3.3,9.2h-4.2L120,5.8h4.3L136.5,35.9z
	 M147.8,35.9c-0.9,0.2-1.8,0.2-2.8,0.2c-1.6,0-2.8-0.3-3.5-0.8c-0.7-0.6-1.2-1.3-1.4-2.2s-0.3-2.1-0.3-3.6V17.1h-2.7v-3h2.7V8.7h3.9
	v5.4h3.5v3h-3.5v12.6c0,1.5,0.2,2.4,0.6,2.9c0.4,0.4,0.9,0.6,1.6,0.6s1.3-0.1,1.9-0.2V35.9z M154.9,35.9H151V5.8h3.9V35.9z
	 M174.5,30.2v-4.8h-2.7c-5.6,0-8.4,1.5-8.4,4.6c0,1.1,0.4,2,1.2,2.6s1.9,0.9,3.3,0.9c1.3,0,2.5-0.3,3.7-0.9
	C172.8,31.9,173.8,31.2,174.5,30.2z M174.5,33.7c-2,1.8-4.5,2.8-7.6,2.8c-2.2,0-3.9-0.6-5.3-1.7c-1.4-1.2-2.1-2.7-2.1-4.5
	c0-5.1,4.4-7.6,13.2-7.6h1.9c0-1.6-0.1-2.7-0.2-3.4c-0.2-0.7-0.6-1.3-1.4-1.8c-0.8-0.5-2-0.7-3.6-0.7c-3.5,0-5.2,1.2-5.3,3.7H160
	c0.3-4.5,3.4-6.7,9.4-6.7c2.8,0,5,0.6,6.5,1.7c1.6,1.1,2.3,3.3,2.3,6.5v13.9h-3.9v-2.2L174.5,33.7L174.5,33.7z M191.9,36.4
	c-6,0-9.1-2.3-9.4-7h3.9c0,2.7,1.8,4,5.4,4c1.6,0,2.8-0.3,3.7-1c0.8-0.7,1.3-1.5,1.3-2.5s-0.4-1.7-1.2-2.1s-2.5-0.9-5.1-1.6
	c-2.6-0.6-4.4-1.4-5.6-2.2c-1.2-0.8-1.8-2.2-1.8-4.2c0-1.8,0.7-3.3,2.2-4.5s3.5-1.8,5.9-1.8c5.7,0,8.6,2,8.8,6.1h-4
	c-0.1-2.1-1.7-3.1-4.6-3.1c-1.3,0-2.4,0.2-3.2,0.7c-0.9,0.5-1.3,1.2-1.3,2.2c0,0.8,0.3,1.5,1,1.9s2.3,0.9,4.9,1.5
	c2.6,0.6,4.6,1.4,5.9,2.2c1.3,0.8,1.9,2.3,1.9,4.4s-0.8,3.6-2.4,5C196.7,35.8,194.5,36.4,191.9,36.4L191.9,36.4z"/>
<path class="st1" d="M208.2,1c2.8,0,5,2.3,5,5s-2.3,5-5,5s-5-2.3-5-5S205.4,1,208.2,1z M208.2,0.5c-3.1,0-5.6,2.4-5.6,5.5
	s2.5,5.5,5.6,5.5s5.6-2.4,5.6-5.4S211.4,0.5,208.2,0.5z"/>
<path class="st1" d="M205.8,8.8V3.2h2.5c0.5,0,0.9,0.1,1.2,0.2c0.2,0.1,0.5,0.2,0.7,0.6c0.2,0.3,0.2,0.6,0.2,0.9
	c0,0.4-0.1,0.7-0.4,1.1c-0.2,0.2-0.7,0.4-1.2,0.6c0.2,0.1,0.3,0.2,0.4,0.2c0.2,0.2,0.4,0.4,0.6,0.7l1,1.5H210l-0.7-1.3
	c-0.2-0.3-0.4-0.6-0.6-0.7c-0.2-0.2-0.2-0.3-0.4-0.4c-0.1-0.1-0.2-0.1-0.3-0.2h-1.2v2.4H205.8z M206.5,5.7h1.7
	c0.3,0,0.6-0.1,0.8-0.1c0.2-0.1,0.3-0.2,0.4-0.3c0.1-0.2,0.2-0.3,0.2-0.5s-0.1-0.5-0.2-0.7c-0.2-0.2-0.5-0.2-0.9-0.2h-1.8L206.5,5.7
	z"/>
<g class="st2">
	<path class="st0" d="M224.4,4.8c0.9-0.2,2.3-0.3,3.9-0.3c1.9,0,3.2,0.3,4.1,1c0.8,0.6,1.2,1.5,1.2,2.7c0,1.6-1.2,2.8-2.3,3.2v0.1
		c0.9,0.4,1.4,1.2,1.7,2.4c0.4,1.4,0.8,3.1,1,3.6h-3c-0.2-0.4-0.5-1.4-0.9-3c-0.3-1.6-0.9-2-2.1-2.1h-0.9v5h-2.9V4.8z M227.3,10.3
		h1.1c1.4,0,2.3-0.7,2.3-1.8c0-1.2-0.8-1.8-2.1-1.8c-0.7,0-1.1,0.1-1.3,0.1V10.3z"/>
	<path class="st0" d="M237.8,13.7c0.1,1.2,1.3,1.8,2.6,1.8c1,0,1.8-0.1,2.6-0.4l0.4,2c-1,0.4-2.1,0.6-3.4,0.6c-3.2,0-5-1.8-5-4.7
		c0-2.4,1.5-5,4.7-5c3,0,4.1,2.3,4.1,4.6c0,0.5-0.1,0.9-0.1,1.1H237.8z M241.2,11.7c0-0.7-0.3-1.9-1.6-1.9c-1.2,0-1.7,1.1-1.8,1.9
		H241.2z"/>
	<path class="st0" d="M245.6,14.9c0.5,0.3,1.6,0.7,2.5,0.7c0.9,0,1.2-0.3,1.2-0.8s-0.3-0.7-1.4-1.1c-1.9-0.6-2.7-1.7-2.6-2.8
		c0-1.7,1.5-3,3.8-3c1.1,0,2.1,0.2,2.6,0.5l-0.5,2c-0.4-0.2-1.2-0.5-2-0.5c-0.7,0-1.1,0.3-1.1,0.8c0,0.4,0.4,0.7,1.5,1.1
		c1.8,0.6,2.5,1.5,2.5,2.9c0,1.7-1.4,3-4,3c-1.2,0-2.3-0.3-3-0.6L245.6,14.9z"/>
	<path class="st0" d="M253.9,11.2c0-1.2,0-2.3-0.1-3.1h2.5l0.1,1.3h0c0.7-1,1.7-1.5,3.1-1.5c2,0,3.9,1.8,3.9,4.7c0,3.4-2.1,5-4.2,5
		c-1.1,0-2-0.5-2.4-1.1h0v4.6h-2.9V11.2z M256.8,13.4c0,0.2,0,0.4,0.1,0.6c0.2,0.8,0.9,1.4,1.7,1.4c1.3,0,2-1,2-2.6
		c0-1.5-0.7-2.6-2-2.6c-0.8,0-1.5,0.6-1.7,1.5c0,0.2-0.1,0.3-0.1,0.5V13.4z"/>
	<path class="st0" d="M274.5,12.7c0,3.4-2.4,5-4.9,5c-2.7,0-4.8-1.8-4.8-4.8c0-3,2-4.9,5-4.9C272.6,7.9,274.5,9.9,274.5,12.7z
		 M267.7,12.8c0,1.6,0.7,2.8,1.9,2.8c1.1,0,1.8-1.1,1.8-2.8c0-1.4-0.5-2.8-1.8-2.8C268.3,10,267.7,11.4,267.7,12.8z"/>
	<path class="st0" d="M276.3,11.1c0-1.2,0-2.1-0.1-3h2.5l0.1,1.3h0.1c0.4-0.6,1.3-1.5,2.9-1.5c1.9,0,3.3,1.3,3.3,4v5.5h-2.9v-5.1
		c0-1.2-0.4-2-1.5-2c-0.8,0-1.3,0.6-1.5,1.1c-0.1,0.2-0.1,0.5-0.1,0.7v5.4h-2.9V11.1z"/>
	<path class="st0" d="M287.4,14.9c0.5,0.3,1.6,0.7,2.5,0.7c0.9,0,1.2-0.3,1.2-0.8s-0.3-0.7-1.4-1.1c-1.9-0.6-2.7-1.7-2.6-2.8
		c0-1.7,1.5-3,3.8-3c1.1,0,2.1,0.2,2.6,0.5l-0.5,2c-0.4-0.2-1.2-0.5-2-0.5c-0.7,0-1.1,0.3-1.1,0.8c0,0.4,0.4,0.7,1.5,1.1
		c1.8,0.6,2.5,1.5,2.5,2.9c0,1.7-1.4,3-4,3c-1.2,0-2.3-0.3-3-0.6L287.4,14.9z"/>
	<path class="st0" d="M298.6,5.5c0,0.8-0.6,1.4-1.6,1.4c-0.9,0-1.5-0.6-1.5-1.4c0-0.8,0.6-1.5,1.5-1.5S298.6,4.7,298.6,5.5z
		 M295.6,17.4V8.1h2.9v9.3H295.6z"/>
	<path class="st0" d="M300.8,17.4c0-0.6,0.1-1.7,0.1-2.8V3.9h2.9v5.3h0c0.6-0.8,1.5-1.3,2.8-1.3c2.2,0,3.9,1.8,3.8,4.7
		c0,3.3-2.1,5-4.3,5c-1.1,0-2.1-0.4-2.8-1.5h0l-0.1,1.3H300.8z M303.7,13.5c0,0.2,0,0.4,0.1,0.5c0.2,0.8,0.9,1.4,1.7,1.4
		c1.2,0,2-1,2-2.6c0-1.4-0.6-2.6-2-2.6c-0.8,0-1.5,0.6-1.7,1.4c0,0.2-0.1,0.3-0.1,0.5V13.5z"/>
	<path class="st0" d="M312.2,3.9h2.9v13.5h-2.9V3.9z"/>
	<path class="st0" d="M319.7,13.7c0.1,1.2,1.3,1.8,2.6,1.8c1,0,1.8-0.1,2.6-0.4l0.4,2c-1,0.4-2.1,0.6-3.4,0.6c-3.2,0-5-1.8-5-4.7
		c0-2.4,1.5-5,4.7-5c3,0,4.1,2.3,4.1,4.6c0,0.5-0.1,0.9-0.1,1.1H319.7z M323.1,11.7c0-0.7-0.3-1.9-1.6-1.9c-1.2,0-1.7,1.1-1.8,1.9
		H323.1z"/>
	<path class="st0" d="M227.4,33.1l-0.9,3.3h-3l3.9-12.8h3.8l4,12.8h-3.1l-1-3.3H227.4z M230.7,31l-0.8-2.7c-0.2-0.8-0.5-1.7-0.6-2.5
		h0c-0.2,0.8-0.4,1.7-0.6,2.5l-0.8,2.7H230.7z"/>
	<path class="st0" d="M239.8,23.6v12.8h-2.9V23.6H239.8z"/>
	<path class="st0" d="M249.1,33.1l-0.9,3.3h-3l3.9-12.8h3.8l4,12.8h-3.1l-1-3.3H249.1z M252.4,31l-0.8-2.7c-0.2-0.8-0.5-1.7-0.6-2.5
		h0c-0.2,0.8-0.4,1.7-0.6,2.5l-0.8,2.7H252.4z"/>
	<path class="st0" d="M258.4,33.9c0.5,0.3,1.6,0.7,2.5,0.7c0.9,0,1.2-0.3,1.2-0.8s-0.3-0.7-1.4-1.1c-1.9-0.6-2.7-1.7-2.6-2.8
		c0-1.7,1.5-3,3.8-3c1.1,0,2.1,0.2,2.6,0.5l-0.5,2c-0.4-0.2-1.2-0.5-2-0.5c-0.7,0-1.1,0.3-1.1,0.8c0,0.4,0.4,0.7,1.5,1.1
		c1.8,0.6,2.5,1.5,2.5,2.9c0,1.7-1.4,3-4,3c-1.2,0-2.3-0.3-3-0.6L258.4,33.9z"/>
	<path class="st0" d="M266.7,33.9c0.5,0.3,1.6,0.7,2.5,0.7c0.9,0,1.2-0.3,1.2-0.8s-0.3-0.7-1.4-1.1c-1.9-0.6-2.7-1.7-2.6-2.8
		c0-1.7,1.5-3,3.8-3c1.1,0,2.1,0.2,2.6,0.5l-0.5,2c-0.4-0.2-1.2-0.5-2-0.5c-0.7,0-1.1,0.3-1.1,0.8c0,0.4,0.4,0.7,1.5,1.1
		c1.8,0.6,2.5,1.5,2.5,2.9c0,1.7-1.4,3-4,3c-1.2,0-2.3-0.3-3-0.6L266.7,33.9z"/>
	<path class="st0" d="M277.2,32.7c0.1,1.2,1.3,1.8,2.6,1.8c1,0,1.8-0.1,2.6-0.4l0.4,2c-1,0.4-2.1,0.6-3.4,0.6c-3.2,0-5-1.8-5-4.7
		c0-2.4,1.5-5,4.7-5c3,0,4.1,2.3,4.1,4.6c0,0.5-0.1,0.9-0.1,1.1H277.2z M280.6,30.7c0-0.7-0.3-1.9-1.6-1.9c-1.2,0-1.7,1.1-1.8,1.9
		H280.6z"/>
	<path class="st0" d="M285,33.9c0.5,0.3,1.6,0.7,2.5,0.7c0.9,0,1.2-0.3,1.2-0.8s-0.3-0.7-1.4-1.1c-1.9-0.6-2.7-1.7-2.6-2.8
		c0-1.7,1.5-3,3.8-3c1.1,0,2.1,0.2,2.6,0.5l-0.5,2c-0.4-0.2-1.2-0.5-2-0.5c-0.7,0-1.1,0.3-1.1,0.8c0,0.4,0.4,0.7,1.5,1.1
		c1.8,0.6,2.5,1.5,2.5,2.9c0,1.7-1.4,3-4,3c-1.2,0-2.3-0.3-3-0.6L285,33.9z"/>
	<path class="st0" d="M293.2,33.9c0.5,0.3,1.6,0.7,2.5,0.7c0.9,0,1.2-0.3,1.2-0.8s-0.3-0.7-1.4-1.1c-1.9-0.6-2.7-1.7-2.6-2.8
		c0-1.7,1.5-3,3.8-3c1.1,0,2.1,0.2,2.6,0.5l-0.5,2c-0.4-0.2-1.2-0.5-2-0.5c-0.7,0-1.1,0.3-1.1,0.8c0,0.4,0.4,0.7,1.5,1.1
		c1.8,0.6,2.5,1.5,2.5,2.9c0,1.7-1.4,3-4,3c-1.2,0-2.3-0.3-3-0.6L293.2,33.9z"/>
	<path class="st0" d="M301.5,30.1c0-1.2,0-2.1-0.1-3h2.4l0.1,1.3h0.1c0.4-0.6,1.2-1.5,2.8-1.5c1.2,0,2.1,0.6,2.5,1.6h0
		c0.3-0.5,0.8-0.9,1.2-1.1c0.5-0.3,1.1-0.5,1.8-0.5c1.8,0,3.1,1.3,3.1,4v5.5h-2.8v-5.1c0-1.3-0.4-2.1-1.4-2.1c-0.7,0-1.1,0.5-1.3,1
		c-0.1,0.2-0.1,0.5-0.1,0.7v5.4h-2.8v-5.2c0-1.2-0.4-2-1.3-2c-0.7,0-1.2,0.6-1.3,1c-0.1,0.2-0.1,0.5-0.1,0.7v5.4h-2.8V30.1z"/>
	<path class="st0" d="M320,32.7c0.1,1.2,1.3,1.8,2.6,1.8c1,0,1.8-0.1,2.6-0.4l0.4,2c-1,0.4-2.1,0.6-3.4,0.6c-3.2,0-5-1.8-5-4.7
		c0-2.4,1.5-5,4.7-5c3,0,4.1,2.3,4.1,4.6c0,0.5-0.1,0.9-0.1,1.1H320z M323.4,30.7c0-0.7-0.3-1.9-1.6-1.9c-1.2,0-1.7,1.1-1.8,1.9
		H323.4z"/>
	<path class="st0" d="M327.8,30.1c0-1.2,0-2.1-0.1-3h2.5l0.1,1.3h0.1c0.4-0.6,1.3-1.5,2.9-1.5c1.9,0,3.3,1.3,3.3,4v5.5h-2.9v-5.1
		c0-1.2-0.4-2-1.5-2c-0.8,0-1.3,0.6-1.5,1.1c-0.1,0.2-0.1,0.5-0.1,0.7v5.4h-2.9V30.1z"/>
	<path class="st0" d="M342.1,24.5v2.7h2.1v2.1h-2.1v3.4c0,1.1,0.3,1.6,1.1,1.6c0.4,0,0.6,0,0.9-0.1l0,2.2c-0.4,0.2-1.1,0.2-1.9,0.2
		c-0.9,0-1.7-0.3-2.2-0.8c-0.5-0.6-0.8-1.4-0.8-2.8v-3.8H338v-2.1h1.2v-2L342.1,24.5z"/>
</g>
</svg>
